<svg width="377" height="69" viewBox="0 0 377 69" fill="none" xmlns="http://www.w3.org/2000/svg">
<path d="M0.733529 16V14.4091L5.6554 9.30966C6.18097 8.75568 6.61421 8.27036 6.95512 7.85369C7.30076 7.43229 7.55881 7.0322 7.72927 6.65341C7.89972 6.27462 7.98495 5.87216 7.98495 5.44602C7.98495 4.96307 7.87131 4.5464 7.64404 4.19602C7.41677 3.84091 7.10664 3.56866 6.71364 3.37926C6.32065 3.18513 5.87794 3.08807 5.38552 3.08807C4.86468 3.08807 4.41014 3.1946 4.02188 3.40767C3.63362 3.62074 3.33533 3.9214 3.12699 4.30966C2.91866 4.69792 2.81449 5.15246 2.81449 5.6733H0.719324C0.719324 4.78788 0.922923 4.01373 1.33012 3.35085C1.73732 2.68797 2.29603 2.17424 3.00626 1.80966C3.71648 1.44034 4.52378 1.25568 5.42813 1.25568C6.34196 1.25568 7.14688 1.43797 7.8429 1.80256C8.54366 2.1624 9.09054 2.65483 9.48353 3.27983C9.87652 3.90009 10.073 4.60085 10.073 5.3821C10.073 5.92188 9.97122 6.44981 9.76762 6.96591C9.56876 7.48201 9.22075 8.05729 8.72359 8.69176C8.22643 9.3215 7.53514 10.0862 6.64972 10.9858L3.7591 14.0114V14.1179H10.3074V16H0.733529ZM18.0139 16.1989C16.9959 16.1989 16.0963 16.0237 15.3151 15.6733C14.5385 15.3229 13.9301 14.84 13.4898 14.2244C13.0494 13.6089 12.8316 12.9081 12.8364 12.1222C12.8316 11.5066 12.9571 10.9408 13.2128 10.4247C13.4732 9.90388 13.826 9.47064 14.271 9.125C14.7161 8.77462 15.2133 8.55208 15.7625 8.45739V8.37216C15.0381 8.19697 14.4581 7.80871 14.0224 7.20739C13.5868 6.60606 13.3714 5.91477 13.3761 5.13352C13.3714 4.39015 13.5679 3.72727 13.9656 3.14489C14.3681 2.55776 14.9197 2.09612 15.6205 1.75994C16.3212 1.42377 17.119 1.25568 18.0139 1.25568C18.8993 1.25568 19.6901 1.42614 20.3861 1.76705C21.0868 2.10322 21.6385 2.56487 22.0409 3.15199C22.4434 3.73437 22.647 4.39489 22.6517 5.13352C22.647 5.91477 22.4244 6.60606 21.9841 7.20739C21.5438 7.80871 20.9708 8.19697 20.2653 8.37216V8.45739C20.8099 8.55208 21.2999 8.77462 21.7355 9.125C22.1759 9.47064 22.5262 9.90388 22.7867 10.4247C23.0518 10.9408 23.1867 11.5066 23.1915 12.1222C23.1867 12.9081 22.9642 13.6089 22.5239 14.2244C22.0835 14.84 21.4727 15.3229 20.6915 15.6733C19.915 16.0237 19.0225 16.1989 18.0139 16.1989ZM18.0139 14.402C18.6153 14.402 19.1361 14.3026 19.5764 14.1037C20.0168 13.9001 20.3577 13.6184 20.5992 13.2585C20.8406 12.8939 20.9637 12.4678 20.9685 11.9801C20.9637 11.4735 20.8312 11.026 20.5707 10.6378C20.3151 10.2495 19.9671 9.94413 19.5267 9.72159C19.0864 9.49905 18.5821 9.38778 18.0139 9.38778C17.441 9.38778 16.932 9.49905 16.4869 9.72159C16.0419 9.94413 15.6915 10.2495 15.4358 10.6378C15.1801 11.026 15.0546 11.4735 15.0594 11.9801C15.0546 12.4678 15.1707 12.8939 15.4074 13.2585C15.6489 13.6184 15.9921 13.9001 16.4372 14.1037C16.8823 14.3026 17.4079 14.402 18.0139 14.402ZM18.0139 7.63352C18.4969 7.63352 18.9254 7.53646 19.2994 7.34233C19.6735 7.1482 19.9671 6.87831 20.1801 6.53267C20.3979 6.18703 20.5092 5.7822 20.5139 5.31818C20.5092 4.86364 20.4003 4.46591 20.1872 4.125C19.9789 3.78409 19.6877 3.52131 19.3136 3.33665C18.9396 3.14725 18.5064 3.05256 18.0139 3.05256C17.512 3.05256 17.0717 3.14725 16.6929 3.33665C16.3189 3.52131 16.0277 3.78409 15.8193 4.125C15.611 4.46591 15.5092 4.86364 15.5139 5.31818C15.5092 5.7822 15.6134 6.18703 15.8264 6.53267C16.0395 6.87831 16.3331 7.1482 16.7071 7.34233C17.0859 7.53646 17.5215 7.63352 18.0139 7.63352ZM30.9566 5.09091V6.79545H24.9978V5.09091H30.9566ZM26.5958 2.47727H28.7194V12.7969C28.7194 13.2088 28.7809 13.5189 28.9041 13.7273C29.0272 13.9309 29.1858 14.0705 29.3799 14.1463C29.5788 14.2173 29.7942 14.2528 30.0262 14.2528C30.1967 14.2528 30.3458 14.241 30.4737 14.2173C30.6015 14.1937 30.7009 14.1747 30.772 14.1605L31.1555 15.9148C31.0324 15.9621 30.8572 16.0095 30.6299 16.0568C30.4026 16.1089 30.1185 16.1373 29.7776 16.142C29.2189 16.1515 28.6981 16.0521 28.2151 15.8438C27.7322 15.6354 27.3416 15.3134 27.0433 14.8778C26.745 14.4422 26.5958 13.8954 26.5958 13.2372V2.47727ZM35.7636 9.52273V16H33.6401V1.45455H35.7352V6.86648H35.8702C36.1259 6.27936 36.5165 5.81297 37.0421 5.46733C37.5676 5.12169 38.2542 4.94886 39.1017 4.94886C39.8498 4.94886 40.5032 5.10275 41.0619 5.41051C41.6254 5.71828 42.061 6.17756 42.3688 6.78835C42.6813 7.39441 42.8375 8.15199 42.8375 9.06108V16H40.7139V9.31676C40.7139 8.51657 40.508 7.89631 40.096 7.45597C39.6841 7.01089 39.1112 6.78835 38.3773 6.78835C37.8754 6.78835 37.4256 6.89489 37.0278 7.10795C36.6349 7.32102 36.3247 7.63352 36.0974 8.04545C35.8749 8.45265 35.7636 8.94508 35.7636 9.52273ZM52.5634 16H50.2339L55.4683 1.45455H58.0038L63.2381 16H60.9086L56.7964 4.09659H56.6827L52.5634 16ZM52.9541 10.304H60.5109V12.1506H52.9541V10.304ZM67.3918 1.45455V16H65.2682V1.45455H67.3918ZM72.4722 1.45455V16H70.3487V1.45455H72.4722ZM83.1872 1.45455V16H80.9926V1.45455H83.1872ZM88.4363 9.52273V16H86.3127V5.09091H88.3511V6.86648H88.486C88.737 6.28883 89.13 5.82481 89.665 5.47443C90.2048 5.12405 90.8842 4.94886 91.7033 4.94886C92.4467 4.94886 93.0978 5.10511 93.6565 5.41761C94.2152 5.72538 94.6484 6.18466 94.9562 6.79545C95.264 7.40625 95.4178 8.16146 95.4178 9.06108V16H93.2943V9.31676C93.2943 8.52604 93.0883 7.90814 92.6764 7.46307C92.2644 7.01326 91.6986 6.78835 90.9789 6.78835C90.4865 6.78835 90.0485 6.89489 89.665 7.10795C89.2862 7.32102 88.9855 7.63352 88.763 8.04545C88.5452 8.45265 88.4363 8.94508 88.4363 9.52273ZM102.45 16.2131C101.569 16.2131 100.783 15.9882 100.092 15.5384C99.4051 15.0838 98.8654 14.4375 98.4724 13.5994C98.0841 12.7566 97.89 11.7457 97.89 10.5668C97.89 9.38778 98.0865 8.37926 98.4795 7.54119C98.8772 6.70312 99.4217 6.06155 100.113 5.61648C100.804 5.1714 101.588 4.94886 102.464 4.94886C103.141 4.94886 103.685 5.0625 104.097 5.28977C104.514 5.51231 104.836 5.77273 105.063 6.07102C105.295 6.36932 105.475 6.6321 105.603 6.85938H105.731V1.45455H107.854V16H105.781V14.3026H105.603C105.475 14.5346 105.291 14.7997 105.049 15.098C104.812 15.3963 104.486 15.6567 104.069 15.8793C103.652 16.1018 103.113 16.2131 102.45 16.2131ZM102.918 14.402C103.529 14.402 104.045 14.241 104.467 13.919C104.893 13.5923 105.215 13.1402 105.433 12.5625C105.655 11.9848 105.766 11.3125 105.766 10.5455C105.766 9.78788 105.658 9.125 105.44 8.55682C105.222 7.98864 104.902 7.54593 104.481 7.22869C104.059 6.91146 103.539 6.75284 102.918 6.75284C102.279 6.75284 101.747 6.91856 101.32 7.25C100.894 7.58144 100.572 8.03362 100.354 8.60653C100.141 9.17945 100.035 9.82576 100.035 10.5455C100.035 11.2746 100.144 11.9304 100.362 12.5128C100.579 13.0952 100.901 13.5568 101.327 13.8977C101.758 14.2339 102.289 14.402 102.918 14.402ZM110.985 16V5.09091H113.109V16H110.985ZM112.058 3.40767C111.688 3.40767 111.371 3.28456 111.106 3.03835C110.846 2.7874 110.715 2.48911 110.715 2.14347C110.715 1.79309 110.846 1.49479 111.106 1.24858C111.371 0.997632 111.688 0.872159 112.058 0.872159C112.427 0.872159 112.742 0.997632 113.002 1.24858C113.268 1.49479 113.4 1.79309 113.4 2.14347C113.4 2.48911 113.268 2.7874 113.002 3.03835C112.742 3.28456 112.427 3.40767 112.058 3.40767ZM119.241 16.2415C118.549 16.2415 117.924 16.1136 117.366 15.858C116.807 15.5975 116.364 15.2211 116.037 14.7287C115.715 14.2363 115.554 13.6326 115.554 12.9176C115.554 12.3021 115.673 11.7955 115.91 11.3977C116.146 11 116.466 10.6851 116.868 10.4531C117.271 10.2211 117.721 10.0459 118.218 9.92756C118.715 9.80919 119.222 9.71922 119.738 9.65767C120.391 9.58191 120.921 9.52036 121.329 9.47301C121.736 9.42093 122.032 9.33807 122.216 9.22443C122.401 9.1108 122.493 8.92614 122.493 8.67045V8.62074C122.493 8.00047 122.318 7.51989 121.968 7.17898C121.622 6.83807 121.106 6.66761 120.42 6.66761C119.705 6.66761 119.141 6.82623 118.729 7.14347C118.322 7.45597 118.04 7.80398 117.884 8.1875L115.888 7.73295C116.125 7.07008 116.471 6.53504 116.925 6.12784C117.385 5.71591 117.912 5.41761 118.509 5.23295C119.106 5.04356 119.733 4.94886 120.391 4.94886C120.827 4.94886 121.288 5.00095 121.776 5.10511C122.268 5.20455 122.728 5.3892 123.154 5.65909C123.585 5.92898 123.938 6.31487 124.212 6.81676C124.487 7.31392 124.624 7.96023 124.624 8.75568V16H122.55V14.5085H122.465C122.328 14.7831 122.122 15.053 121.847 15.3182C121.572 15.5833 121.22 15.8035 120.789 15.9787C120.358 16.1539 119.842 16.2415 119.241 16.2415ZM119.702 14.5369C120.289 14.5369 120.791 14.4209 121.208 14.1889C121.629 13.9569 121.949 13.6539 122.167 13.2798C122.389 12.901 122.501 12.4962 122.501 12.0653V10.6591C122.425 10.7348 122.278 10.8059 122.06 10.8722C121.847 10.9337 121.603 10.9882 121.329 11.0355C121.054 11.0781 120.786 11.1184 120.526 11.1562C120.266 11.1894 120.048 11.2178 119.873 11.2415C119.461 11.2936 119.084 11.3812 118.743 11.5043C118.407 11.6274 118.137 11.8049 117.934 12.0369C117.735 12.2642 117.635 12.5672 117.635 12.946C117.635 13.4716 117.83 13.8693 118.218 14.1392C118.606 14.4044 119.101 14.5369 119.702 14.5369ZM133.116 16V1.45455H142.136V3.34375H135.311V7.77557H141.49V9.65767H135.311V16H133.116ZM148.559 16.2202C147.536 16.2202 146.643 15.9858 145.881 15.517C145.119 15.0483 144.527 14.3925 144.106 13.5497C143.684 12.7069 143.473 11.7221 143.473 10.5952C143.473 9.46354 143.684 8.47396 144.106 7.62642C144.527 6.77888 145.119 6.12074 145.881 5.65199C146.643 5.18324 147.536 4.94886 148.559 4.94886C149.581 4.94886 150.474 5.18324 151.236 5.65199C151.999 6.12074 152.59 6.77888 153.012 7.62642C153.433 8.47396 153.644 9.46354 153.644 10.5952C153.644 11.7221 153.433 12.7069 153.012 13.5497C152.59 14.3925 151.999 15.0483 151.236 15.517C150.474 15.9858 149.581 16.2202 148.559 16.2202ZM148.566 14.4375C149.229 14.4375 149.778 14.2623 150.214 13.9119C150.649 13.5616 150.971 13.0952 151.179 12.5128C151.392 11.9304 151.499 11.2888 151.499 10.5881C151.499 9.89205 151.392 9.25284 151.179 8.67045C150.971 8.08333 150.649 7.61222 150.214 7.2571C149.778 6.90199 149.229 6.72443 148.566 6.72443C147.898 6.72443 147.344 6.90199 146.904 7.2571C146.468 7.61222 146.144 8.08333 145.931 8.67045C145.723 9.25284 145.618 9.89205 145.618 10.5881C145.618 11.2888 145.723 11.9304 145.931 12.5128C146.144 13.0952 146.468 13.5616 146.904 13.9119C147.344 14.2623 147.898 14.4375 148.566 14.4375ZM156.114 16V5.09091H158.167V6.82386H158.28C158.479 6.23674 158.83 5.77509 159.332 5.43892C159.838 5.09801 160.411 4.92756 161.05 4.92756C161.183 4.92756 161.339 4.93229 161.519 4.94176C161.704 4.95123 161.848 4.96307 161.952 4.97727V7.00852C161.867 6.98485 161.716 6.95881 161.498 6.9304C161.28 6.89725 161.062 6.88068 160.844 6.88068C160.342 6.88068 159.895 6.98722 159.502 7.20028C159.114 7.40862 158.806 7.69981 158.579 8.07386C158.351 8.44318 158.238 8.86458 158.238 9.33807V16H156.114ZM168.201 16.2202C167.126 16.2202 166.201 15.9905 165.424 15.5312C164.652 15.0672 164.056 14.4162 163.634 13.5781C163.218 12.7353 163.009 11.7481 163.009 10.6165C163.009 9.49905 163.218 8.5142 163.634 7.66193C164.056 6.80966 164.643 6.14441 165.396 5.66619C166.153 5.18797 167.039 4.94886 168.052 4.94886C168.668 4.94886 169.264 5.05066 169.842 5.25426C170.419 5.45786 170.938 5.77746 171.397 6.21307C171.856 6.64867 172.219 7.21449 172.484 7.91051C172.749 8.6018 172.882 9.44223 172.882 10.4318V11.1847H164.21V9.59375H170.801C170.801 9.03504 170.687 8.54025 170.46 8.10938C170.232 7.67377 169.913 7.33049 169.501 7.07955C169.094 6.8286 168.615 6.70312 168.066 6.70312C167.47 6.70312 166.949 6.84991 166.504 7.14347C166.063 7.43229 165.722 7.81108 165.481 8.27983C165.244 8.74384 165.126 9.24811 165.126 9.79261V11.0355C165.126 11.7647 165.254 12.3849 165.509 12.8963C165.77 13.4077 166.132 13.7983 166.596 14.0682C167.06 14.3333 167.602 14.4659 168.222 14.4659C168.625 14.4659 168.992 14.4091 169.323 14.2955C169.655 14.1771 169.941 14.0019 170.183 13.7699C170.424 13.5379 170.609 13.2514 170.737 12.9105L172.747 13.2727C172.586 13.8646 172.297 14.383 171.88 14.8281C171.468 15.2685 170.95 15.6117 170.325 15.858C169.704 16.0994 168.997 16.2202 168.201 16.2202ZM183.512 7.75426L181.588 8.09517C181.507 7.84896 181.379 7.61458 181.204 7.39205C181.034 7.16951 180.802 6.98722 180.508 6.84517C180.215 6.70312 179.848 6.6321 179.407 6.6321C178.806 6.6321 178.304 6.76705 177.902 7.03693C177.499 7.30208 177.298 7.64536 177.298 8.06676C177.298 8.43134 177.433 8.72491 177.703 8.94744C177.973 9.16998 178.408 9.35227 179.01 9.49432L180.743 9.89205C181.746 10.1241 182.494 10.4815 182.987 10.9645C183.479 11.4474 183.725 12.0748 183.725 12.8466C183.725 13.5 183.536 14.0824 183.157 14.5938C182.783 15.1004 182.26 15.4981 181.588 15.7869C180.92 16.0758 180.146 16.2202 179.265 16.2202C178.044 16.2202 177.047 15.9598 176.275 15.4389C175.503 14.9134 175.03 14.1676 174.855 13.2017L176.907 12.8892C177.035 13.4242 177.298 13.8291 177.696 14.1037C178.093 14.3736 178.612 14.5085 179.251 14.5085C179.947 14.5085 180.503 14.3641 180.92 14.0753C181.337 13.7817 181.545 13.4242 181.545 13.0028C181.545 12.6619 181.417 12.3755 181.162 12.1435C180.911 11.9115 180.525 11.7363 180.004 11.6179L178.157 11.2131C177.139 10.9811 176.386 10.6117 175.899 10.1051C175.416 9.59848 175.174 8.95691 175.174 8.1804C175.174 7.53646 175.354 6.97301 175.714 6.49006C176.074 6.0071 176.571 5.63068 177.206 5.3608C177.84 5.08617 178.567 4.94886 179.386 4.94886C180.565 4.94886 181.493 5.20455 182.17 5.71591C182.847 6.22254 183.295 6.90199 183.512 7.75426ZM191.253 5.09091V6.79545H185.294V5.09091H191.253ZM186.892 2.47727H189.015V12.7969C189.015 13.2088 189.077 13.5189 189.2 13.7273C189.323 13.9309 189.482 14.0705 189.676 14.1463C189.875 14.2173 190.09 14.2528 190.322 14.2528C190.493 14.2528 190.642 14.241 190.77 14.2173C190.898 14.1937 190.997 14.1747 191.068 14.1605L191.452 15.9148C191.328 15.9621 191.153 16.0095 190.926 16.0568C190.699 16.1089 190.415 16.1373 190.074 16.142C189.515 16.1515 188.994 16.0521 188.511 15.8438C188.028 15.6354 187.638 15.3134 187.339 14.8778C187.041 14.4422 186.892 13.8954 186.892 13.2372V2.47727ZM207.198 5.27557C207.123 4.60322 206.81 4.08239 206.261 3.71307C205.712 3.33902 205.02 3.15199 204.187 3.15199C203.59 3.15199 203.074 3.24669 202.639 3.43608C202.203 3.62074 201.865 3.87642 201.623 4.20312C201.386 4.52509 201.268 4.89205 201.268 5.30398C201.268 5.64962 201.349 5.94792 201.51 6.19886C201.675 6.44981 201.891 6.66051 202.156 6.83097C202.426 6.99669 202.715 7.13636 203.022 7.25C203.33 7.3589 203.626 7.44886 203.91 7.51989L205.331 7.8892C205.795 8.00284 206.27 8.15672 206.758 8.35085C207.246 8.54498 207.698 8.80066 208.115 9.1179C208.531 9.43513 208.867 9.82812 209.123 10.2969C209.384 10.7656 209.514 11.3267 209.514 11.9801C209.514 12.804 209.301 13.5355 208.875 14.1747C208.453 14.8139 207.84 15.3182 207.035 15.6875C206.235 16.0568 205.267 16.2415 204.13 16.2415C203.041 16.2415 202.099 16.0687 201.304 15.723C200.508 15.3774 199.885 14.8873 199.436 14.2528C198.986 13.6136 198.737 12.8561 198.69 11.9801H200.892C200.934 12.5057 201.105 12.9437 201.403 13.294C201.706 13.6397 202.092 13.8977 202.561 14.0682C203.034 14.2339 203.553 14.3168 204.116 14.3168C204.736 14.3168 205.288 14.2197 205.771 14.0256C206.259 13.8267 206.642 13.5521 206.921 13.2017C207.201 12.8466 207.34 12.4323 207.34 11.9588C207.34 11.5279 207.217 11.1752 206.971 10.9006C206.73 10.6259 206.401 10.3987 205.984 10.2188C205.572 10.0388 205.106 9.88021 204.585 9.7429L202.866 9.27415C201.701 8.95691 200.778 8.49053 200.096 7.875C199.419 7.25947 199.081 6.44508 199.081 5.43182C199.081 4.59375 199.308 3.86222 199.762 3.23722C200.217 2.61222 200.832 2.12689 201.609 1.78125C202.385 1.43087 203.261 1.25568 204.237 1.25568C205.222 1.25568 206.09 1.4285 206.843 1.77415C207.601 2.11979 208.197 2.59564 208.633 3.2017C209.069 3.80303 209.296 4.49432 209.315 5.27557H207.198ZM212.066 20.0909V5.09091H214.14V6.85938H214.317C214.44 6.6321 214.618 6.36932 214.85 6.07102C215.082 5.77273 215.404 5.51231 215.816 5.28977C216.228 5.0625 216.772 4.94886 217.449 4.94886C218.33 4.94886 219.116 5.1714 219.807 5.61648C220.499 6.06155 221.041 6.70312 221.434 7.54119C221.831 8.37926 222.03 9.38778 222.03 10.5668C222.03 11.7457 221.834 12.7566 221.441 13.5994C221.048 14.4375 220.508 15.0838 219.822 15.5384C219.135 15.9882 218.351 16.2131 217.471 16.2131C216.808 16.2131 216.266 16.1018 215.844 15.8793C215.428 15.6567 215.101 15.3963 214.864 15.098C214.627 14.7997 214.445 14.5346 214.317 14.3026H214.189V20.0909H212.066ZM214.147 10.5455C214.147 11.3125 214.258 11.9848 214.481 12.5625C214.703 13.1402 215.025 13.5923 215.447 13.919C215.868 14.241 216.384 14.402 216.995 14.402C217.629 14.402 218.16 14.2339 218.586 13.8977C219.012 13.5568 219.334 13.0952 219.552 12.5128C219.774 11.9304 219.885 11.2746 219.885 10.5455C219.885 9.82576 219.777 9.17945 219.559 8.60653C219.346 8.03362 219.024 7.58144 218.593 7.25C218.167 6.91856 217.634 6.75284 216.995 6.75284C216.379 6.75284 215.858 6.91146 215.432 7.22869C215.011 7.54593 214.691 7.98864 214.474 8.55682C214.256 9.125 214.147 9.78788 214.147 10.5455ZM229.105 16.2202C228.082 16.2202 227.19 15.9858 226.427 15.517C225.665 15.0483 225.073 14.3925 224.652 13.5497C224.23 12.7069 224.02 11.7221 224.02 10.5952C224.02 9.46354 224.23 8.47396 224.652 7.62642C225.073 6.77888 225.665 6.12074 226.427 5.65199C227.19 5.18324 228.082 4.94886 229.105 4.94886C230.127 4.94886 231.02 5.18324 231.782 5.65199C232.545 6.12074 233.136 6.77888 233.558 7.62642C233.979 8.47396 234.19 9.46354 234.19 10.5952C234.19 11.7221 233.979 12.7069 233.558 13.5497C233.136 14.3925 232.545 15.0483 231.782 15.517C231.02 15.9858 230.127 16.2202 229.105 16.2202ZM229.112 14.4375C229.775 14.4375 230.324 14.2623 230.76 13.9119C231.195 13.5616 231.517 13.0952 231.725 12.5128C231.939 11.9304 232.045 11.2888 232.045 10.5881C232.045 9.89205 231.939 9.25284 231.725 8.67045C231.517 8.08333 231.195 7.61222 230.76 7.2571C230.324 6.90199 229.775 6.72443 229.112 6.72443C228.444 6.72443 227.89 6.90199 227.45 7.2571C227.014 7.61222 226.69 8.08333 226.477 8.67045C226.269 9.25284 226.164 9.89205 226.164 10.5881C226.164 11.2888 226.269 11.9304 226.477 12.5128C226.69 13.0952 227.014 13.5616 227.45 13.9119C227.89 14.2623 228.444 14.4375 229.112 14.4375ZM236.66 16V5.09091H238.713V6.82386H238.827C239.025 6.23674 239.376 5.77509 239.878 5.43892C240.384 5.09801 240.957 4.92756 241.596 4.92756C241.729 4.92756 241.885 4.93229 242.065 4.94176C242.25 4.95123 242.394 4.96307 242.498 4.97727V7.00852C242.413 6.98485 242.262 6.95881 242.044 6.9304C241.826 6.89725 241.608 6.88068 241.39 6.88068C240.889 6.88068 240.441 6.98722 240.048 7.20028C239.66 7.40862 239.352 7.69981 239.125 8.07386C238.898 8.44318 238.784 8.86458 238.784 9.33807V16H236.66ZM250.173 5.09091V6.79545H244.214V5.09091H250.173ZM245.812 2.47727H247.936V12.7969C247.936 13.2088 247.997 13.5189 248.12 13.7273C248.244 13.9309 248.402 14.0705 248.596 14.1463C248.795 14.2173 249.011 14.2528 249.243 14.2528C249.413 14.2528 249.562 14.241 249.69 14.2173C249.818 14.1937 249.917 14.1747 249.988 14.1605L250.372 15.9148C250.249 15.9621 250.074 16.0095 249.846 16.0568C249.619 16.1089 249.335 16.1373 248.994 16.142C248.435 16.1515 247.915 16.0521 247.432 15.8438C246.949 15.6354 246.558 15.3134 246.26 14.8778C245.961 14.4422 245.812 13.8954 245.812 13.2372V2.47727ZM260.621 7.75426L258.696 8.09517C258.616 7.84896 258.488 7.61458 258.313 7.39205C258.142 7.16951 257.91 6.98722 257.617 6.84517C257.323 6.70312 256.956 6.6321 256.516 6.6321C255.915 6.6321 255.413 6.76705 255.01 7.03693C254.608 7.30208 254.407 7.64536 254.407 8.06676C254.407 8.43134 254.541 8.72491 254.811 8.94744C255.081 9.16998 255.517 9.35227 256.118 9.49432L257.851 9.89205C258.855 10.1241 259.603 10.4815 260.095 10.9645C260.588 11.4474 260.834 12.0748 260.834 12.8466C260.834 13.5 260.645 14.0824 260.266 14.5938C259.892 15.1004 259.369 15.4981 258.696 15.7869C258.029 16.0758 257.255 16.2202 256.374 16.2202C255.152 16.2202 254.156 15.9598 253.384 15.4389C252.612 14.9134 252.139 14.1676 251.963 13.2017L254.016 12.8892C254.144 13.4242 254.407 13.8291 254.804 14.1037C255.202 14.3736 255.72 14.5085 256.36 14.5085C257.056 14.5085 257.612 14.3641 258.029 14.0753C258.445 13.7817 258.654 13.4242 258.654 13.0028C258.654 12.6619 258.526 12.3755 258.27 12.1435C258.019 11.9115 257.633 11.7363 257.113 11.6179L255.266 11.2131C254.248 10.9811 253.495 10.6117 253.007 10.1051C252.524 9.59848 252.283 8.95691 252.283 8.1804C252.283 7.53646 252.463 6.97301 252.823 6.49006C253.183 6.0071 253.68 5.63068 254.314 5.3608C254.949 5.08617 255.675 4.94886 256.495 4.94886C257.674 4.94886 258.602 5.20455 259.279 5.71591C259.956 6.22254 260.403 6.90199 260.621 7.75426ZM268.832 1.45455H271.496L276.126 12.7614H276.297L280.928 1.45455H283.591V16H281.503V5.47443H281.368L277.078 15.9787H275.345L271.055 5.46733H270.92V16H268.832V1.45455ZM291.413 16.2202C290.338 16.2202 289.412 15.9905 288.636 15.5312C287.864 15.0672 287.268 14.4162 286.846 13.5781C286.429 12.7353 286.221 11.7481 286.221 10.6165C286.221 9.49905 286.429 8.5142 286.846 7.66193C287.268 6.80966 287.855 6.14441 288.607 5.66619C289.365 5.18797 290.25 4.94886 291.264 4.94886C291.879 4.94886 292.476 5.05066 293.053 5.25426C293.631 5.45786 294.15 5.77746 294.609 6.21307C295.068 6.64867 295.43 7.21449 295.696 7.91051C295.961 8.6018 296.093 9.44223 296.093 10.4318V11.1847H287.421V9.59375H294.012C294.012 9.03504 293.899 8.54025 293.671 8.10938C293.444 7.67377 293.125 7.33049 292.713 7.07955C292.305 6.8286 291.827 6.70312 291.278 6.70312C290.681 6.70312 290.16 6.84991 289.715 7.14347C289.275 7.43229 288.934 7.81108 288.693 8.27983C288.456 8.74384 288.338 9.24811 288.338 9.79261V11.0355C288.338 11.7647 288.465 12.3849 288.721 12.8963C288.982 13.4077 289.344 13.7983 289.808 14.0682C290.272 14.3333 290.814 14.4659 291.434 14.4659C291.837 14.4659 292.204 14.4091 292.535 14.2955C292.866 14.1771 293.153 14.0019 293.394 13.7699C293.636 13.5379 293.821 13.2514 293.948 12.9105L295.958 13.2727C295.797 13.8646 295.509 14.383 295.092 14.8281C294.68 15.2685 294.161 15.6117 293.536 15.858C292.916 16.0994 292.208 16.2202 291.413 16.2202ZM303.251 16.2202C302.176 16.2202 301.251 15.9905 300.474 15.5312C299.702 15.0672 299.106 14.4162 298.684 13.5781C298.268 12.7353 298.059 11.7481 298.059 10.6165C298.059 9.49905 298.268 8.5142 298.684 7.66193C299.106 6.80966 299.693 6.14441 300.446 5.66619C301.203 5.18797 302.089 4.94886 303.102 4.94886C303.718 4.94886 304.314 5.05066 304.892 5.25426C305.469 5.45786 305.988 5.77746 306.447 6.21307C306.906 6.64867 307.269 7.21449 307.534 7.91051C307.799 8.6018 307.932 9.44223 307.932 10.4318V11.1847H299.26V9.59375H305.851C305.851 9.03504 305.737 8.54025 305.51 8.10938C305.282 7.67377 304.963 7.33049 304.551 7.07955C304.144 6.8286 303.665 6.70312 303.116 6.70312C302.52 6.70312 301.999 6.84991 301.554 7.14347C301.113 7.43229 300.772 7.81108 300.531 8.27983C300.294 8.74384 300.176 9.24811 300.176 9.79261V11.0355C300.176 11.7647 300.304 12.3849 300.559 12.8963C300.82 13.4077 301.182 13.7983 301.646 14.0682C302.11 14.3333 302.652 14.4659 303.272 14.4659C303.675 14.4659 304.042 14.4091 304.373 14.2955C304.705 14.1771 304.991 14.0019 305.233 13.7699C305.474 13.5379 305.659 13.2514 305.787 12.9105L307.797 13.2727C307.636 13.8646 307.347 14.383 306.93 14.8281C306.518 15.2685 306 15.6117 305.375 15.858C304.754 16.0994 304.047 16.2202 303.251 16.2202ZM315.48 5.09091V6.79545H309.521V5.09091H315.48ZM311.119 2.47727H313.243V12.7969C313.243 13.2088 313.304 13.5189 313.428 13.7273C313.551 13.9309 313.709 14.0705 313.903 14.1463C314.102 14.2173 314.318 14.2528 314.55 14.2528C314.72 14.2528 314.869 14.241 314.997 14.2173C315.125 14.1937 315.224 14.1747 315.295 14.1605L315.679 15.9148C315.556 15.9621 315.381 16.0095 315.153 16.0568C314.926 16.1089 314.642 16.1373 314.301 16.142C313.742 16.1515 313.222 16.0521 312.739 15.8438C312.256 15.6354 311.865 15.3134 311.567 14.8778C311.268 14.4422 311.119 13.8954 311.119 13.2372V2.47727ZM320.692 14.0114L320.585 14.7855C320.514 15.3537 320.394 15.9455 320.223 16.5611C320.057 17.1813 319.885 17.7566 319.705 18.2869C319.529 18.8172 319.385 19.2386 319.271 19.5511H317.766C317.827 19.2576 317.913 18.8598 318.021 18.358C318.13 17.8608 318.237 17.3045 318.341 16.6889C318.445 16.0734 318.523 15.446 318.575 14.8068L318.646 14.0114H320.692ZM328.921 16V14.4091L333.843 9.30966C334.368 8.75568 334.802 8.27036 335.143 7.85369C335.488 7.43229 335.746 7.0322 335.917 6.65341C336.087 6.27462 336.172 5.87216 336.172 5.44602C336.172 4.96307 336.059 4.5464 335.832 4.19602C335.604 3.84091 335.294 3.56866 334.901 3.37926C334.508 3.18513 334.065 3.08807 333.573 3.08807C333.052 3.08807 332.598 3.1946 332.209 3.40767C331.821 3.62074 331.523 3.9214 331.314 4.30966C331.106 4.69792 331.002 5.15246 331.002 5.6733H328.907C328.907 4.78788 329.11 4.01373 329.518 3.35085C329.925 2.68797 330.484 2.17424 331.194 1.80966C331.904 1.44034 332.711 1.25568 333.616 1.25568C334.529 1.25568 335.334 1.43797 336.03 1.80256C336.731 2.1624 337.278 2.65483 337.671 3.27983C338.064 3.90009 338.261 4.60085 338.261 5.3821C338.261 5.92188 338.159 6.44981 337.955 6.96591C337.756 7.48201 337.408 8.05729 336.911 8.69176C336.414 9.3215 335.723 10.0862 334.837 10.9858L331.947 14.0114V14.1179H338.495V16H328.921ZM346.351 16.2415C345.228 16.2367 344.27 15.9408 343.474 15.3537C342.679 14.7666 342.07 13.9119 341.649 12.7898C341.227 11.6676 341.017 10.3158 341.017 8.73438C341.017 7.15767 341.227 5.81061 341.649 4.69318C342.075 3.57576 342.686 2.72348 343.481 2.13636C344.281 1.54924 345.238 1.25568 346.351 1.25568C347.463 1.25568 348.417 1.55161 349.213 2.14347C350.008 2.73059 350.617 3.58286 351.038 4.70028C351.464 5.81297 351.677 7.15767 351.677 8.73438C351.677 10.3205 351.467 11.6747 351.045 12.7969C350.624 13.9143 350.015 14.7689 349.22 15.3608C348.424 15.9479 347.468 16.2415 346.351 16.2415ZM346.351 14.3452C347.335 14.3452 348.105 13.8646 348.659 12.9034C349.218 11.9422 349.497 10.5526 349.497 8.73438C349.497 7.52699 349.369 6.50663 349.113 5.6733C348.862 4.83523 348.5 4.20076 348.027 3.76989C347.558 3.33428 346.999 3.11648 346.351 3.11648C345.37 3.11648 344.601 3.59943 344.042 4.56534C343.484 5.53125 343.202 6.92093 343.197 8.73438C343.197 9.9465 343.323 10.9716 343.574 11.8097C343.829 12.643 344.191 13.2751 344.66 13.706C345.129 14.1321 345.692 14.3452 346.351 14.3452ZM354.297 16V14.4091L359.219 9.30966C359.744 8.75568 360.178 8.27036 360.518 7.85369C360.864 7.43229 361.122 7.0322 361.293 6.65341C361.463 6.27462 361.548 5.87216 361.548 5.44602C361.548 4.96307 361.435 4.5464 361.207 4.19602C360.98 3.84091 360.67 3.56866 360.277 3.37926C359.884 3.18513 359.441 3.08807 358.949 3.08807C358.428 3.08807 357.973 3.1946 357.585 3.40767C357.197 3.62074 356.899 3.9214 356.69 4.30966C356.482 4.69792 356.378 5.15246 356.378 5.6733H354.283C354.283 4.78788 354.486 4.01373 354.893 3.35085C355.301 2.68797 355.859 2.17424 356.57 1.80966C357.28 1.44034 358.087 1.25568 358.991 1.25568C359.905 1.25568 360.71 1.43797 361.406 1.80256C362.107 2.1624 362.654 2.65483 363.047 3.27983C363.44 3.90009 363.636 4.60085 363.636 5.3821C363.636 5.92188 363.535 6.44981 363.331 6.96591C363.132 7.48201 362.784 8.05729 362.287 8.69176C361.79 9.3215 361.098 10.0862 360.213 10.9858L357.322 14.0114V14.1179H363.871V16H354.297ZM371.464 16.1989C370.573 16.1989 369.773 16.0284 369.063 15.6875C368.357 15.3419 367.794 14.8684 367.373 14.267C366.951 13.6657 366.726 12.9792 366.698 12.2074H368.829C368.881 12.8324 369.158 13.3461 369.66 13.7486C370.161 14.151 370.763 14.3523 371.464 14.3523C372.022 14.3523 372.517 14.2244 372.948 13.9688C373.384 13.7083 373.724 13.3509 373.971 12.8963C374.222 12.4418 374.347 11.9233 374.347 11.3409C374.347 10.7491 374.219 10.2211 373.964 9.7571C373.708 9.29309 373.355 8.9285 372.905 8.66335C372.46 8.3982 371.949 8.26326 371.371 8.25852C370.931 8.25852 370.488 8.33428 370.043 8.4858C369.598 8.63731 369.238 8.83617 368.964 9.08239L366.954 8.78409L367.77 1.45455H375.768V3.33665H369.596L369.134 7.40625H369.219C369.503 7.13163 369.88 6.90199 370.349 6.71733C370.822 6.53267 371.329 6.44034 371.868 6.44034C372.754 6.44034 373.542 6.65104 374.233 7.07244C374.929 7.49384 375.476 8.06913 375.874 8.7983C376.277 9.52273 376.475 10.3561 376.471 11.2983C376.475 12.2405 376.262 13.081 375.831 13.8196C375.405 14.5582 374.813 15.1406 374.056 15.5668C373.303 15.9882 372.439 16.1989 371.464 16.1989ZM45.9423 27.4545H48.144V37.0213C48.144 38.0393 47.9049 38.9413 47.4267 39.7273C46.9485 40.5085 46.2761 41.1241 45.4097 41.5739C44.5432 42.0189 43.5276 42.2415 42.3628 42.2415C41.2028 42.2415 40.1895 42.0189 39.323 41.5739C38.4565 41.1241 37.7842 40.5085 37.306 39.7273C36.8278 38.9413 36.5886 38.0393 36.5886 37.0213V27.4545H38.7832V36.8438C38.7832 37.5019 38.9277 38.0866 39.2165 38.598C39.51 39.1094 39.9243 39.5118 40.4594 39.8054C40.9944 40.0942 41.6289 40.2386 42.3628 40.2386C43.1014 40.2386 43.7383 40.0942 44.2733 39.8054C44.8131 39.5118 45.225 39.1094 45.5091 38.598C45.7979 38.0866 45.9423 37.5019 45.9423 36.8438V27.4545ZM56.3566 31.0909V32.7955H50.3978V31.0909H56.3566ZM51.9958 28.4773H54.1194V38.7969C54.1194 39.2088 54.1809 39.5189 54.3041 39.7273C54.4272 39.9309 54.5858 40.0705 54.7799 40.1463C54.9788 40.2173 55.1942 40.2528 55.4262 40.2528C55.5967 40.2528 55.7458 40.241 55.8737 40.2173C56.0015 40.1937 56.1009 40.1747 56.172 40.1605L56.5555 41.9148C56.4324 41.9621 56.2572 42.0095 56.0299 42.0568C55.8026 42.1089 55.5185 42.1373 55.1776 42.142C54.6189 42.1515 54.0981 42.0521 53.6151 41.8438C53.1322 41.6354 52.7416 41.3134 52.4433 40.8778C52.145 40.4422 51.9958 39.8954 51.9958 39.2372V28.4773ZM63.898 31.0909V32.7955H57.9392V31.0909H63.898ZM59.5372 28.4773H61.6608V38.7969C61.6608 39.2088 61.7224 39.5189 61.8455 39.7273C61.9686 39.9309 62.1272 40.0705 62.3213 40.1463C62.5202 40.2173 62.7356 40.2528 62.9676 40.2528C63.1381 40.2528 63.2872 40.241 63.4151 40.2173C63.5429 40.1937 63.6423 40.1747 63.7134 40.1605L64.0969 41.9148C63.9738 41.9621 63.7986 42.0095 63.5713 42.0568C63.344 42.1089 63.06 42.1373 62.719 42.142C62.1603 42.1515 61.6395 42.0521 61.1565 41.8438C60.6736 41.6354 60.283 41.3134 59.9847 40.8778C59.6864 40.4422 59.5372 39.8954 59.5372 39.2372V28.4773ZM69.5218 42.2415C68.8305 42.2415 68.2055 42.1136 67.6468 41.858C67.0881 41.5975 66.6454 41.2211 66.3187 40.7287C65.9967 40.2363 65.8357 39.6326 65.8357 38.9176C65.8357 38.3021 65.9541 37.7955 66.1908 37.3977C66.4276 37 66.7472 36.6851 67.1497 36.4531C67.5521 36.2211 68.0019 36.0459 68.4991 35.9276C68.9962 35.8092 69.5029 35.7192 70.019 35.6577C70.6724 35.5819 71.2027 35.5204 71.6099 35.473C72.0171 35.4209 72.313 35.3381 72.4977 35.2244C72.6823 35.1108 72.7747 34.9261 72.7747 34.6705V34.6207C72.7747 34.0005 72.5995 33.5199 72.2491 33.179C71.9034 32.8381 71.3873 32.6676 70.7008 32.6676C69.9858 32.6676 69.4224 32.8262 69.0104 33.1435C68.6033 33.456 68.3215 33.804 68.1653 34.1875L66.1695 33.733C66.4063 33.0701 66.7519 32.535 67.2065 32.1278C67.6658 31.7159 68.1937 31.4176 68.7903 31.233C69.3869 31.0436 70.0142 30.9489 70.6724 30.9489C71.108 30.9489 71.5696 31.0009 72.0573 31.1051C72.5497 31.2045 73.009 31.3892 73.4352 31.6591C73.866 31.929 74.2188 32.3149 74.4934 32.8168C74.768 33.3139 74.9053 33.9602 74.9053 34.7557V42H72.8315V40.5085H72.7462C72.6089 40.7831 72.403 41.053 72.1283 41.3182C71.8537 41.5833 71.501 41.8035 71.0701 41.9787C70.6392 42.1539 70.1231 42.2415 69.5218 42.2415ZM69.9835 40.5369C70.5706 40.5369 71.0725 40.4209 71.4891 40.1889C71.9105 39.9569 72.2301 39.6539 72.4479 39.2798C72.6705 38.901 72.7818 38.4962 72.7818 38.0653V36.6591C72.706 36.7348 72.5592 36.8059 72.3414 36.8722C72.1283 36.9337 71.8845 36.9882 71.6099 37.0355C71.3353 37.0781 71.0677 37.1184 70.8073 37.1562C70.5469 37.1894 70.3291 37.2178 70.1539 37.2415C69.742 37.2936 69.3656 37.3812 69.0247 37.5043C68.6885 37.6274 68.4186 37.8049 68.215 38.0369C68.0161 38.2642 67.9167 38.5672 67.9167 38.946C67.9167 39.4716 68.1108 39.8693 68.4991 40.1392C68.8873 40.4044 69.3821 40.5369 69.9835 40.5369ZM77.8338 42V31.0909H79.8864V32.8239H80C80.1989 32.2367 80.5493 31.7751 81.0511 31.4389C81.5578 31.098 82.1307 30.9276 82.7699 30.9276C82.9025 30.9276 83.0587 30.9323 83.2386 30.9418C83.4233 30.9512 83.5677 30.9631 83.6719 30.9773V33.0085C83.5867 32.9848 83.4351 32.9588 83.2173 32.9304C82.9995 32.8973 82.7817 32.8807 82.5639 32.8807C82.062 32.8807 81.6146 32.9872 81.2216 33.2003C80.8333 33.4086 80.5256 33.6998 80.2983 34.0739C80.071 34.4432 79.9574 34.8646 79.9574 35.3381V42H77.8338ZM88.6867 42.2415C87.9954 42.2415 87.3704 42.1136 86.8117 41.858C86.2529 41.5975 85.8102 41.2211 85.4835 40.7287C85.1616 40.2363 85.0006 39.6326 85.0006 38.9176C85.0006 38.3021 85.1189 37.7955 85.3557 37.3977C85.5924 37 85.912 36.6851 86.3145 36.4531C86.717 36.2211 87.1668 36.0459 87.6639 35.9276C88.1611 35.8092 88.6677 35.7192 89.1838 35.6577C89.8372 35.5819 90.3675 35.5204 90.7747 35.473C91.1819 35.4209 91.4778 35.3381 91.6625 35.2244C91.8472 35.1108 91.9395 34.9261 91.9395 34.6705V34.6207C91.9395 34.0005 91.7643 33.5199 91.4139 33.179C91.0683 32.8381 90.5522 32.6676 89.8656 32.6676C89.1507 32.6676 88.5872 32.8262 88.1753 33.1435C87.7681 33.456 87.4864 33.804 87.3301 34.1875L85.3344 33.733C85.5711 33.0701 85.9168 32.535 86.3713 32.1278C86.8306 31.7159 87.3585 31.4176 87.9551 31.233C88.5517 31.0436 89.1791 30.9489 89.8372 30.9489C90.2728 30.9489 90.7345 31.0009 91.2222 31.1051C91.7146 31.2045 92.1739 31.3892 92.6 31.6591C93.0309 31.929 93.3836 32.3149 93.6582 32.8168C93.9329 33.3139 94.0702 33.9602 94.0702 34.7557V42H91.9963V40.5085H91.9111C91.7738 40.7831 91.5678 41.053 91.2932 41.3182C91.0186 41.5833 90.6658 41.8035 90.2349 41.9787C89.8041 42.1539 89.288 42.2415 88.6867 42.2415ZM89.1483 40.5369C89.7354 40.5369 90.2373 40.4209 90.654 40.1889C91.0754 39.9569 91.395 39.6539 91.6128 39.2798C91.8353 38.901 91.9466 38.4962 91.9466 38.0653V36.6591C91.8708 36.7348 91.7241 36.8059 91.5063 36.8722C91.2932 36.9337 91.0493 36.9882 90.7747 37.0355C90.5001 37.0781 90.2326 37.1184 89.9722 37.1562C89.7117 37.1894 89.4939 37.2178 89.3188 37.2415C88.9068 37.2936 88.5304 37.3812 88.1895 37.5043C87.8533 37.6274 87.5834 37.8049 87.3798 38.0369C87.181 38.2642 87.0815 38.5672 87.0815 38.946C87.0815 39.4716 87.2757 39.8693 87.6639 40.1392C88.0522 40.4044 88.547 40.5369 89.1483 40.5369ZM98.9518 38.2997L98.9376 35.7074H99.3069L103.653 31.0909H106.196L101.239 36.3466H100.905L98.9518 38.2997ZM96.9987 42V27.4545H99.1222V42H96.9987ZM103.888 42L99.9816 36.8153L101.445 35.331L106.494 42H103.888ZM110.355 35.5227V42H108.231V27.4545H110.327V32.8665H110.462C110.717 32.2794 111.108 31.813 111.633 31.4673C112.159 31.1217 112.846 30.9489 113.693 30.9489C114.441 30.9489 115.095 31.1027 115.653 31.4105C116.217 31.7183 116.652 32.1776 116.96 32.7884C117.273 33.3944 117.429 34.152 117.429 35.0611V42H115.305V35.3168C115.305 34.5166 115.099 33.8963 114.687 33.456C114.276 33.0109 113.703 32.7884 112.969 32.7884C112.467 32.7884 112.017 32.8949 111.619 33.108C111.226 33.321 110.916 33.6335 110.689 34.0455C110.466 34.4527 110.355 34.9451 110.355 35.5227ZM123.537 42.2415C122.846 42.2415 122.221 42.1136 121.662 41.858C121.104 41.5975 120.661 41.2211 120.334 40.7287C120.012 40.2363 119.851 39.6326 119.851 38.9176C119.851 38.3021 119.97 37.7955 120.206 37.3977C120.443 37 120.763 36.6851 121.165 36.4531C121.568 36.2211 122.018 36.0459 122.515 35.9276C123.012 35.8092 123.518 35.7192 124.035 35.6577C124.688 35.5819 125.218 35.5204 125.626 35.473C126.033 35.4209 126.329 35.3381 126.513 35.2244C126.698 35.1108 126.79 34.9261 126.79 34.6705V34.6207C126.79 34.0005 126.615 33.5199 126.265 33.179C125.919 32.8381 125.403 32.6676 124.716 32.6676C124.001 32.6676 123.438 32.8262 123.026 33.1435C122.619 33.456 122.337 33.804 122.181 34.1875L120.185 33.733C120.422 33.0701 120.768 32.535 121.222 32.1278C121.681 31.7159 122.209 31.4176 122.806 31.233C123.402 31.0436 124.03 30.9489 124.688 30.9489C125.124 30.9489 125.585 31.0009 126.073 31.1051C126.565 31.2045 127.025 31.3892 127.451 31.6591C127.882 31.929 128.234 32.3149 128.509 32.8168C128.784 33.3139 128.921 33.9602 128.921 34.7557V42H126.847V40.5085H126.762C126.625 40.7831 126.419 41.053 126.144 41.3182C125.869 41.5833 125.517 41.8035 125.086 41.9787C124.655 42.1539 124.139 42.2415 123.537 42.2415ZM123.999 40.5369C124.586 40.5369 125.088 40.4209 125.505 40.1889C125.926 39.9569 126.246 39.6539 126.464 39.2798C126.686 38.901 126.797 38.4962 126.797 38.0653V36.6591C126.722 36.7348 126.575 36.8059 126.357 36.8722C126.144 36.9337 125.9 36.9882 125.626 37.0355C125.351 37.0781 125.083 37.1184 124.823 37.1562C124.563 37.1894 124.345 37.2178 124.17 37.2415C123.758 37.2936 123.381 37.3812 123.04 37.5043C122.704 37.6274 122.434 37.8049 122.231 38.0369C122.032 38.2642 121.932 38.5672 121.932 38.946C121.932 39.4716 122.126 39.8693 122.515 40.1392C122.903 40.4044 123.398 40.5369 123.999 40.5369ZM133.973 35.5227V42H131.849V31.0909H133.888V32.8665H134.023C134.274 32.2888 134.667 31.8248 135.202 31.4744C135.741 31.1241 136.421 30.9489 137.24 30.9489C137.983 30.9489 138.634 31.1051 139.193 31.4176C139.752 31.7254 140.185 32.1847 140.493 32.7955C140.801 33.4062 140.955 34.1615 140.955 35.0611V42H138.831V35.3168C138.831 34.526 138.625 33.9081 138.213 33.4631C137.801 33.0133 137.235 32.7884 136.516 32.7884C136.023 32.7884 135.585 32.8949 135.202 33.108C134.823 33.321 134.522 33.6335 134.3 34.0455C134.082 34.4527 133.973 34.9451 133.973 35.5227ZM147.986 42.2131C147.106 42.2131 146.32 41.9882 145.628 41.5384C144.942 41.0838 144.402 40.4375 144.009 39.5994C143.621 38.7566 143.427 37.7457 143.427 36.5668C143.427 35.3878 143.623 34.3793 144.016 33.5412C144.414 32.7031 144.958 32.0616 145.65 31.6165C146.341 31.1714 147.125 30.9489 148.001 30.9489C148.678 30.9489 149.222 31.0625 149.634 31.2898C150.051 31.5123 150.373 31.7727 150.6 32.071C150.832 32.3693 151.012 32.6321 151.14 32.8594H151.268V27.4545H153.391V42H151.317V40.3026H151.14C151.012 40.5346 150.827 40.7997 150.586 41.098C150.349 41.3963 150.022 41.6567 149.606 41.8793C149.189 42.1018 148.649 42.2131 147.986 42.2131ZM148.455 40.402C149.066 40.402 149.582 40.241 150.003 39.919C150.43 39.5923 150.752 39.1402 150.969 38.5625C151.192 37.9848 151.303 37.3125 151.303 36.5455C151.303 35.7879 151.194 35.125 150.976 34.5568C150.759 33.9886 150.439 33.5459 150.018 33.2287C149.596 32.9115 149.075 32.7528 148.455 32.7528C147.816 32.7528 147.283 32.9186 146.857 33.25C146.431 33.5814 146.109 34.0336 145.891 34.6065C145.678 35.1795 145.572 35.8258 145.572 36.5455C145.572 37.2746 145.68 37.9304 145.898 38.5128C146.116 39.0952 146.438 39.5568 146.864 39.8977C147.295 40.2339 147.825 40.402 148.455 40.402ZM162.086 42V27.4545H171.105V29.3438H164.28V33.7756H170.459V35.6577H164.28V42H162.086ZM177.528 42.2202C176.505 42.2202 175.613 41.9858 174.851 41.517C174.088 41.0483 173.496 40.3925 173.075 39.5497C172.654 38.7069 172.443 37.7221 172.443 36.5952C172.443 35.4635 172.654 34.474 173.075 33.6264C173.496 32.7789 174.088 32.1207 174.851 31.652C175.613 31.1832 176.505 30.9489 177.528 30.9489C178.551 30.9489 179.443 31.1832 180.206 31.652C180.968 32.1207 181.56 32.7789 181.981 33.6264C182.403 34.474 182.613 35.4635 182.613 36.5952C182.613 37.7221 182.403 38.7069 181.981 39.5497C181.56 40.3925 180.968 41.0483 180.206 41.517C179.443 41.9858 178.551 42.2202 177.528 42.2202ZM177.535 40.4375C178.198 40.4375 178.747 40.2623 179.183 39.9119C179.619 39.5616 179.941 39.0952 180.149 38.5128C180.362 37.9304 180.469 37.2888 180.469 36.5881C180.469 35.892 180.362 35.2528 180.149 34.6705C179.941 34.0833 179.619 33.6122 179.183 33.2571C178.747 32.902 178.198 32.7244 177.535 32.7244C176.868 32.7244 176.314 32.902 175.873 33.2571C175.438 33.6122 175.113 34.0833 174.9 34.6705C174.692 35.2528 174.588 35.892 174.588 36.5881C174.588 37.2888 174.692 37.9304 174.9 38.5128C175.113 39.0952 175.438 39.5616 175.873 39.9119C176.314 40.2623 176.868 40.4375 177.535 40.4375ZM185.084 42V31.0909H187.136V32.8239H187.25C187.449 32.2367 187.799 31.7751 188.301 31.4389C188.808 31.098 189.381 30.9276 190.02 30.9276C190.152 30.9276 190.309 30.9323 190.489 30.9418C190.673 30.9512 190.818 30.9631 190.922 30.9773V33.0085C190.837 32.9848 190.685 32.9588 190.467 32.9304C190.25 32.8973 190.032 32.8807 189.814 32.8807C189.312 32.8807 188.865 32.9872 188.472 33.2003C188.083 33.4086 187.776 33.6998 187.548 34.0739C187.321 34.4432 187.207 34.8646 187.207 35.3381V42H185.084ZM197.171 42.2202C196.096 42.2202 195.17 41.9905 194.394 41.5312C193.622 41.0672 193.025 40.4162 192.604 39.5781C192.187 38.7353 191.979 37.7481 191.979 36.6165C191.979 35.4991 192.187 34.5142 192.604 33.6619C193.025 32.8097 193.612 32.1444 194.365 31.6662C195.123 31.188 196.008 30.9489 197.022 30.9489C197.637 30.9489 198.234 31.0507 198.811 31.2543C199.389 31.4579 199.907 31.7775 200.367 32.2131C200.826 32.6487 201.188 33.2145 201.453 33.9105C201.718 34.6018 201.851 35.4422 201.851 36.4318V37.1847H193.179V35.5938H199.77C199.77 35.035 199.656 34.5402 199.429 34.1094C199.202 33.6738 198.882 33.3305 198.47 33.0795C198.063 32.8286 197.585 32.7031 197.036 32.7031C196.439 32.7031 195.918 32.8499 195.473 33.1435C195.033 33.4323 194.692 33.8111 194.451 34.2798C194.214 34.7438 194.095 35.2481 194.095 35.7926V37.0355C194.095 37.7647 194.223 38.3849 194.479 38.8963C194.739 39.4077 195.102 39.7983 195.566 40.0682C196.03 40.3333 196.572 40.4659 197.192 40.4659C197.594 40.4659 197.961 40.4091 198.293 40.2955C198.624 40.1771 198.911 40.0019 199.152 39.7699C199.394 39.5379 199.578 39.2514 199.706 38.9105L201.716 39.2727C201.555 39.8646 201.266 40.383 200.85 40.8281C200.438 41.2685 199.919 41.6117 199.294 41.858C198.674 42.0994 197.966 42.2202 197.171 42.2202ZM212.482 33.7543L210.557 34.0952C210.477 33.849 210.349 33.6146 210.174 33.392C210.003 33.1695 209.771 32.9872 209.478 32.8452C209.184 32.7031 208.817 32.6321 208.377 32.6321C207.776 32.6321 207.274 32.767 206.871 33.0369C206.469 33.3021 206.267 33.6454 206.267 34.0668C206.267 34.4313 206.402 34.7249 206.672 34.9474C206.942 35.17 207.378 35.3523 207.979 35.4943L209.712 35.892C210.716 36.1241 211.464 36.4815 211.956 36.9645C212.449 37.4474 212.695 38.0748 212.695 38.8466C212.695 39.5 212.506 40.0824 212.127 40.5938C211.753 41.1004 211.23 41.4981 210.557 41.7869C209.89 42.0758 209.115 42.2202 208.235 42.2202C207.013 42.2202 206.017 41.9598 205.245 41.4389C204.473 40.9134 203.999 40.1676 203.824 39.2017L205.877 38.8892C206.005 39.4242 206.267 39.8291 206.665 40.1037C207.063 40.3736 207.581 40.5085 208.221 40.5085C208.917 40.5085 209.473 40.3641 209.89 40.0753C210.306 39.7817 210.515 39.4242 210.515 39.0028C210.515 38.6619 210.387 38.3755 210.131 38.1435C209.88 37.9115 209.494 37.7363 208.973 37.6179L207.127 37.2131C206.109 36.9811 205.356 36.6117 204.868 36.1051C204.385 35.5985 204.144 34.9569 204.144 34.1804C204.144 33.5365 204.324 32.973 204.684 32.4901C205.044 32.0071 205.541 31.6307 206.175 31.3608C206.81 31.0862 207.536 30.9489 208.356 30.9489C209.535 30.9489 210.463 31.2045 211.14 31.7159C211.817 32.2225 212.264 32.902 212.482 33.7543ZM220.222 31.0909V32.7955H214.263V31.0909H220.222ZM215.861 28.4773H217.985V38.7969C217.985 39.2088 218.047 39.5189 218.17 39.7273C218.293 39.9309 218.451 40.0705 218.646 40.1463C218.844 40.2173 219.06 40.2528 219.292 40.2528C219.462 40.2528 219.611 40.241 219.739 40.2173C219.867 40.1937 219.967 40.1747 220.038 40.1605L220.421 41.9148C220.298 41.9621 220.123 42.0095 219.896 42.0568C219.668 42.1089 219.384 42.1373 219.043 42.142C218.485 42.1515 217.964 42.0521 217.481 41.8438C216.998 41.6354 216.607 41.3134 216.309 40.8778C216.011 40.4422 215.861 39.8954 215.861 39.2372V28.4773ZM232.944 42H228.235V27.4545H233.093C234.518 27.4545 235.742 27.7457 236.765 28.3281C237.787 28.9058 238.571 29.7367 239.115 30.821C239.665 31.9006 239.939 33.1955 239.939 34.706C239.939 36.2211 239.662 37.5232 239.108 38.6122C238.559 39.7012 237.764 40.5393 236.722 41.1264C235.68 41.7088 234.421 42 232.944 42ZM230.429 40.0824H232.823C233.931 40.0824 234.852 39.8741 235.586 39.4574C236.319 39.036 236.869 38.4276 237.233 37.6321C237.598 36.8319 237.78 35.8565 237.78 34.706C237.78 33.5649 237.598 32.5966 237.233 31.8011C236.873 31.0057 236.336 30.402 235.621 29.9901C234.906 29.5781 234.018 29.3722 232.958 29.3722H230.429V40.0824ZM247.3 42.2202C246.225 42.2202 245.299 41.9905 244.523 41.5312C243.751 41.0672 243.154 40.4162 242.733 39.5781C242.316 38.7353 242.108 37.7481 242.108 36.6165C242.108 35.4991 242.316 34.5142 242.733 33.6619C243.154 32.8097 243.741 32.1444 244.494 31.6662C245.252 31.188 246.137 30.9489 247.15 30.9489C247.766 30.9489 248.363 31.0507 248.94 31.2543C249.518 31.4579 250.036 31.7775 250.496 32.2131C250.955 32.6487 251.317 33.2145 251.582 33.9105C251.847 34.6018 251.98 35.4422 251.98 36.4318V37.1847H243.308V35.5938H249.899C249.899 35.035 249.785 34.5402 249.558 34.1094C249.331 33.6738 249.011 33.3305 248.599 33.0795C248.192 32.8286 247.714 32.7031 247.165 32.7031C246.568 32.7031 246.047 32.8499 245.602 33.1435C245.162 33.4323 244.821 33.8111 244.579 34.2798C244.343 34.7438 244.224 35.2481 244.224 35.7926V37.0355C244.224 37.7647 244.352 38.3849 244.608 38.8963C244.868 39.4077 245.23 39.7983 245.694 40.0682C246.158 40.3333 246.701 40.4659 247.321 40.4659C247.723 40.4659 248.09 40.4091 248.422 40.2955C248.753 40.1771 249.04 40.0019 249.281 39.7699C249.523 39.5379 249.707 39.2514 249.835 38.9105L251.845 39.2727C251.684 39.8646 251.395 40.383 250.979 40.8281C250.567 41.2685 250.048 41.6117 249.423 41.858C248.803 42.0994 248.095 42.2202 247.3 42.2202ZM254.436 46.0909V31.0909H256.51V32.8594H256.688C256.811 32.6321 256.988 32.3693 257.22 32.071C257.452 31.7727 257.774 31.5123 258.186 31.2898C258.598 31.0625 259.143 30.9489 259.82 30.9489C260.7 30.9489 261.486 31.1714 262.178 31.6165C262.869 32.0616 263.411 32.7031 263.804 33.5412C264.202 34.3793 264.401 35.3878 264.401 36.5668C264.401 37.7457 264.204 38.7566 263.811 39.5994C263.418 40.4375 262.878 41.0838 262.192 41.5384C261.505 41.9882 260.722 42.2131 259.841 42.2131C259.178 42.2131 258.636 42.1018 258.215 41.8793C257.798 41.6567 257.471 41.3963 257.234 41.098C256.998 40.7997 256.815 40.5346 256.688 40.3026H256.56V46.0909H254.436ZM256.517 36.5455C256.517 37.3125 256.628 37.9848 256.851 38.5625C257.073 39.1402 257.395 39.5923 257.817 39.919C258.238 40.241 258.754 40.402 259.365 40.402C260 40.402 260.53 40.2339 260.956 39.8977C261.382 39.5568 261.704 39.0952 261.922 38.5128C262.144 37.9304 262.256 37.2746 262.256 36.5455C262.256 35.8258 262.147 35.1795 261.929 34.6065C261.716 34.0336 261.394 33.5814 260.963 33.25C260.537 32.9186 260.004 32.7528 259.365 32.7528C258.75 32.7528 258.229 32.9115 257.803 33.2287C257.381 33.5459 257.062 33.9886 256.844 34.5568C256.626 35.125 256.517 35.7879 256.517 36.5455ZM270.055 42.2415C269.363 42.2415 268.738 42.1136 268.18 41.858C267.621 41.5975 267.178 41.2211 266.851 40.7287C266.53 40.2363 266.369 39.6326 266.369 38.9176C266.369 38.3021 266.487 37.7955 266.724 37.3977C266.96 37 267.28 36.6851 267.682 36.4531C268.085 36.2211 268.535 36.0459 269.032 35.9276C269.529 35.8092 270.036 35.7192 270.552 35.6577C271.205 35.5819 271.735 35.5204 272.143 35.473C272.55 35.4209 272.846 35.3381 273.03 35.2244C273.215 35.1108 273.307 34.9261 273.307 34.6705V34.6207C273.307 34.0005 273.132 33.5199 272.782 33.179C272.436 32.8381 271.92 32.6676 271.234 32.6676C270.519 32.6676 269.955 32.8262 269.543 33.1435C269.136 33.456 268.854 33.804 268.698 34.1875L266.702 33.733C266.939 33.0701 267.285 32.535 267.739 32.1278C268.199 31.7159 268.726 31.4176 269.323 31.233C269.92 31.0436 270.547 30.9489 271.205 30.9489C271.641 30.9489 272.102 31.0009 272.59 31.1051C273.083 31.2045 273.542 31.3892 273.968 31.6591C274.399 31.929 274.752 32.3149 275.026 32.8168C275.301 33.3139 275.438 33.9602 275.438 34.7557V42H273.364V40.5085H273.279C273.142 40.7831 272.936 41.053 272.661 41.3182C272.387 41.5833 272.034 41.8035 271.603 41.9787C271.172 42.1539 270.656 42.2415 270.055 42.2415ZM270.516 40.5369C271.103 40.5369 271.605 40.4209 272.022 40.1889C272.443 39.9569 272.763 39.6539 272.981 39.2798C273.203 38.901 273.315 38.4962 273.315 38.0653V36.6591C273.239 36.7348 273.092 36.8059 272.874 36.8722C272.661 36.9337 272.417 36.9882 272.143 37.0355C271.868 37.0781 271.601 37.1184 271.34 37.1562C271.08 37.1894 270.862 37.2178 270.687 37.2415C270.275 37.2936 269.898 37.3812 269.557 37.5043C269.221 37.6274 268.951 37.8049 268.748 38.0369C268.549 38.2642 268.449 38.5672 268.449 38.946C268.449 39.4716 268.644 39.8693 269.032 40.1392C269.42 40.4044 269.915 40.5369 270.516 40.5369ZM278.367 42V31.0909H280.419V32.8239H280.533C280.732 32.2367 281.082 31.7751 281.584 31.4389C282.091 31.098 282.664 30.9276 283.303 30.9276C283.435 30.9276 283.592 30.9323 283.771 30.9418C283.956 30.9512 284.101 30.9631 284.205 30.9773V33.0085C284.119 32.9848 283.968 32.9588 283.75 32.9304C283.532 32.8973 283.315 32.8807 283.097 32.8807C282.595 32.8807 282.147 32.9872 281.754 33.2003C281.366 33.4086 281.058 33.6998 280.831 34.0739C280.604 34.4432 280.49 34.8646 280.49 35.3381V42H278.367ZM291.879 31.0909V32.7955H285.92V31.0909H291.879ZM287.518 28.4773H289.642V38.7969C289.642 39.2088 289.704 39.5189 289.827 39.7273C289.95 39.9309 290.108 40.0705 290.303 40.1463C290.501 40.2173 290.717 40.2528 290.949 40.2528C291.119 40.2528 291.268 40.241 291.396 40.2173C291.524 40.1937 291.624 40.1747 291.695 40.1605L292.078 41.9148C291.955 41.9621 291.78 42.0095 291.553 42.0568C291.325 42.1089 291.041 42.1373 290.7 42.142C290.142 42.1515 289.621 42.0521 289.138 41.8438C288.655 41.6354 288.264 41.3134 287.966 40.8778C287.668 40.4422 287.518 39.8954 287.518 39.2372V28.4773ZM294.328 42V31.0909H296.367V32.8665H296.502C296.729 32.2652 297.101 31.7964 297.617 31.4602C298.133 31.1193 298.751 30.9489 299.47 30.9489C300.2 30.9489 300.81 31.1193 301.303 31.4602C301.8 31.8011 302.167 32.2699 302.404 32.8665H302.517C302.778 32.2841 303.192 31.8201 303.76 31.4744C304.328 31.1241 305.005 30.9489 305.791 30.9489C306.781 30.9489 307.588 31.259 308.213 31.8793C308.843 32.4995 309.158 33.4347 309.158 34.6847V42H307.034V34.8835C307.034 34.1449 306.833 33.6098 306.431 33.2784C306.028 32.947 305.548 32.7812 304.989 32.7812C304.298 32.7812 303.76 32.9943 303.377 33.4205C302.993 33.8419 302.801 34.384 302.801 35.0469V42H300.685V34.7486C300.685 34.1567 300.5 33.6809 300.131 33.321C299.762 32.9612 299.281 32.7812 298.689 32.7812C298.287 32.7812 297.915 32.8878 297.574 33.1009C297.238 33.3092 296.966 33.6004 296.757 33.9744C296.554 34.3485 296.452 34.7817 296.452 35.2741V42H294.328ZM316.806 42.2202C315.731 42.2202 314.805 41.9905 314.029 41.5312C313.257 41.0672 312.66 40.4162 312.239 39.5781C311.822 38.7353 311.614 37.7481 311.614 36.6165C311.614 35.4991 311.822 34.5142 312.239 33.6619C312.66 32.8097 313.248 32.1444 314 31.6662C314.758 31.188 315.643 30.9489 316.657 30.9489C317.272 30.9489 317.869 31.0507 318.446 31.2543C319.024 31.4579 319.543 31.7775 320.002 32.2131C320.461 32.6487 320.823 33.2145 321.089 33.9105C321.354 34.6018 321.486 35.4422 321.486 36.4318V37.1847H312.814V35.5938H319.405C319.405 35.035 319.292 34.5402 319.064 34.1094C318.837 33.6738 318.517 33.3305 318.106 33.0795C317.698 32.8286 317.22 32.7031 316.671 32.7031C316.074 32.7031 315.553 32.8499 315.108 33.1435C314.668 33.4323 314.327 33.8111 314.086 34.2798C313.849 34.7438 313.731 35.2481 313.731 35.7926V37.0355C313.731 37.7647 313.858 38.3849 314.114 38.8963C314.374 39.4077 314.737 39.7983 315.201 40.0682C315.665 40.3333 316.207 40.4659 316.827 40.4659C317.23 40.4659 317.597 40.4091 317.928 40.2955C318.259 40.1771 318.546 40.0019 318.787 39.7699C319.029 39.5379 319.214 39.2514 319.341 38.9105L321.351 39.2727C321.19 39.8646 320.901 40.383 320.485 40.8281C320.073 41.2685 319.554 41.6117 318.929 41.858C318.309 42.0994 317.601 42.2202 316.806 42.2202ZM326.066 35.5227V42H323.942V31.0909H325.981V32.8665H326.116C326.367 32.2888 326.76 31.8248 327.295 31.4744C327.834 31.1241 328.514 30.9489 329.333 30.9489C330.076 30.9489 330.727 31.1051 331.286 31.4176C331.845 31.7254 332.278 32.1847 332.586 32.7955C332.894 33.4062 333.048 34.1615 333.048 35.0611V42H330.924V35.3168C330.924 34.526 330.718 33.9081 330.306 33.4631C329.894 33.0133 329.328 32.7884 328.609 32.7884C328.116 32.7884 327.678 32.8949 327.295 33.108C326.916 33.321 326.615 33.6335 326.393 34.0455C326.175 34.4527 326.066 34.9451 326.066 35.5227ZM341.088 31.0909V32.7955H335.129V31.0909H341.088ZM336.727 28.4773H338.851V38.7969C338.851 39.2088 338.912 39.5189 339.035 39.7273C339.158 39.9309 339.317 40.0705 339.511 40.1463C339.71 40.2173 339.925 40.2528 340.157 40.2528C340.328 40.2528 340.477 40.241 340.605 40.2173C340.733 40.1937 340.832 40.1747 340.903 40.1605L341.287 41.9148C341.164 41.9621 340.988 42.0095 340.761 42.0568C340.534 42.1089 340.25 42.1373 339.909 42.142C339.35 42.1515 338.829 42.0521 338.346 41.8438C337.863 41.6354 337.473 41.3134 337.174 40.8778C336.876 40.4422 336.727 39.8954 336.727 39.2372V28.4773ZM65.3336 58.0497C65.1963 57.6188 65.0116 57.233 64.7796 56.892C64.5523 56.5464 64.2801 56.2528 63.9628 56.0114C63.6456 55.7652 63.2834 55.5781 62.8762 55.4503C62.4737 55.3224 62.031 55.2585 61.548 55.2585C60.7289 55.2585 59.9903 55.4692 59.3321 55.8906C58.674 56.312 58.1532 56.9299 57.7696 57.7443C57.3909 58.554 57.2015 59.5459 57.2015 60.7202C57.2015 61.8991 57.3932 62.8958 57.7767 63.7102C58.1603 64.5246 58.6858 65.1425 59.3534 65.5639C60.0211 65.9853 60.781 66.196 61.6333 66.196C62.424 66.196 63.1129 66.035 63.7 65.7131C64.2919 65.3911 64.7488 64.9366 65.0708 64.3494C65.3975 63.7576 65.5608 63.0616 65.5608 62.2614L66.129 62.3679H61.9671V60.5568H67.6844V62.2116C67.6844 63.4332 67.424 64.4938 66.9032 65.3935C66.3871 66.2884 65.6721 66.9796 64.7583 67.4673C63.8492 67.955 62.8075 68.1989 61.6333 68.1989C60.317 68.1989 59.1617 67.8958 58.1674 67.2898C57.1778 66.6837 56.406 65.8243 55.852 64.7116C55.298 63.5942 55.0211 62.2685 55.0211 60.7344C55.0211 59.5743 55.182 58.5327 55.504 57.6094C55.826 56.6861 56.2782 55.9025 56.8605 55.2585C57.4477 54.6098 58.1366 54.1151 58.9273 53.7741C59.7228 53.4285 60.5916 53.2557 61.5338 53.2557C62.3198 53.2557 63.0514 53.3717 63.7284 53.6037C64.4103 53.8357 65.0163 54.1648 65.5466 54.5909C66.0817 55.017 66.5244 55.5237 66.8748 56.1108C67.2251 56.6932 67.4619 57.3395 67.585 58.0497H65.3336ZM74.995 68.2202C73.9723 68.2202 73.0797 67.9858 72.3174 67.517C71.5551 67.0483 70.9633 66.3925 70.5419 65.5497C70.1205 64.7069 69.9098 63.7221 69.9098 62.5952C69.9098 61.4635 70.1205 60.474 70.5419 59.6264C70.9633 58.7789 71.5551 58.1207 72.3174 57.652C73.0797 57.1832 73.9723 56.9489 74.995 56.9489C76.0177 56.9489 76.9102 57.1832 77.6726 57.652C78.4349 58.1207 79.0267 58.7789 79.4481 59.6264C79.8695 60.474 80.0802 61.4635 80.0802 62.5952C80.0802 63.7221 79.8695 64.7069 79.4481 65.5497C79.0267 66.3925 78.4349 67.0483 77.6726 67.517C76.9102 67.9858 76.0177 68.2202 74.995 68.2202ZM75.0021 66.4375C75.665 66.4375 76.2142 66.2623 76.6498 65.9119C77.0854 65.5616 77.4074 65.0952 77.6157 64.5128C77.8288 63.9304 77.9353 63.2888 77.9353 62.5881C77.9353 61.892 77.8288 61.2528 77.6157 60.6705C77.4074 60.0833 77.0854 59.6122 76.6498 59.2571C76.2142 58.902 75.665 58.7244 75.0021 58.7244C74.3345 58.7244 73.7805 58.902 73.3402 59.2571C72.9046 59.6122 72.5802 60.0833 72.3672 60.6705C72.1588 61.2528 72.0547 61.892 72.0547 62.5881C72.0547 63.2888 72.1588 63.9304 72.3672 64.5128C72.5802 65.0952 72.9046 65.5616 73.3402 65.9119C73.7805 66.2623 74.3345 66.4375 75.0021 66.4375ZM91.5119 57.0909L87.5559 68H85.2832L81.3201 57.0909H83.6L86.3627 65.4858H86.4764L89.2321 57.0909H91.5119ZM97.9383 68.2202C96.8634 68.2202 95.9378 67.9905 95.1613 67.5312C94.3895 67.0672 93.7929 66.4162 93.3715 65.5781C92.9548 64.7353 92.7465 63.7481 92.7465 62.6165C92.7465 61.4991 92.9548 60.5142 93.3715 59.6619C93.7929 58.8097 94.38 58.1444 95.1329 57.6662C95.8904 57.188 96.7758 56.9489 97.7891 56.9489C98.4046 56.9489 99.0012 57.0507 99.5789 57.2543C100.157 57.4579 100.675 57.7775 101.134 58.2131C101.594 58.6487 101.956 59.2145 102.221 59.9105C102.486 60.6018 102.619 61.4422 102.619 62.4318V63.1847H93.9468V61.5938H100.538C100.538 61.035 100.424 60.5402 100.197 60.1094C99.9695 59.6738 99.6499 59.3305 99.238 59.0795C98.8308 58.8286 98.3526 58.7031 97.8033 58.7031C97.2067 58.7031 96.6859 58.8499 96.2408 59.1435C95.8005 59.4323 95.4596 59.8111 95.2181 60.2798C94.9813 60.7438 94.863 61.2481 94.863 61.7926V63.0355C94.863 63.7647 94.9908 64.3849 95.2465 64.8963C95.5069 65.4077 95.8691 65.7983 96.3331 66.0682C96.7972 66.3333 97.3393 66.4659 97.9596 66.4659C98.362 66.4659 98.729 66.4091 99.0604 66.2955C99.3919 66.1771 99.6783 66.0019 99.9198 65.7699C100.161 65.5379 100.346 65.2514 100.474 64.9105L102.484 65.2727C102.323 65.8646 102.034 66.383 101.617 66.8281C101.205 67.2685 100.687 67.6117 100.062 67.858C99.4416 68.0994 98.7337 68.2202 97.9383 68.2202ZM105.075 68V57.0909H107.127V58.8239H107.241C107.44 58.2367 107.79 57.7751 108.292 57.4389C108.799 57.098 109.372 56.9276 110.011 56.9276C110.143 56.9276 110.3 56.9323 110.48 56.9418C110.664 56.9512 110.809 56.9631 110.913 56.9773V59.0085C110.828 58.9848 110.676 58.9588 110.458 58.9304C110.241 58.8973 110.023 58.8807 109.805 58.8807C109.303 58.8807 108.856 58.9872 108.463 59.2003C108.074 59.4086 107.767 59.6998 107.539 60.0739C107.312 60.4432 107.198 60.8646 107.198 61.3381V68H105.075ZM114.974 61.5227V68H112.851V57.0909H114.889V58.8665H115.024C115.275 58.2888 115.668 57.8248 116.203 57.4744C116.743 57.1241 117.422 56.9489 118.241 56.9489C118.985 56.9489 119.636 57.1051 120.194 57.4176C120.753 57.7254 121.186 58.1847 121.494 58.7955C121.802 59.4062 121.956 60.1615 121.956 61.0611V68H119.832V61.3168C119.832 60.526 119.626 59.9081 119.214 59.4631C118.802 59.0133 118.236 58.7884 117.517 58.7884C117.024 58.7884 116.586 58.8949 116.203 59.108C115.824 59.321 115.523 59.6335 115.301 60.0455C115.083 60.4527 114.974 60.9451 114.974 61.5227ZM124.904 68V57.0909H126.942V58.8665H127.077C127.304 58.2652 127.676 57.7964 128.192 57.4602C128.708 57.1193 129.326 56.9489 130.046 56.9489C130.775 56.9489 131.386 57.1193 131.878 57.4602C132.375 57.8011 132.742 58.2699 132.979 58.8665H133.093C133.353 58.2841 133.767 57.8201 134.336 57.4744C134.904 57.1241 135.581 56.9489 136.367 56.9489C137.356 56.9489 138.164 57.259 138.789 57.8793C139.418 58.4995 139.733 59.4347 139.733 60.6847V68H137.61V60.8835C137.61 60.1449 137.408 59.6098 137.006 59.2784C136.604 58.947 136.123 58.7812 135.564 58.7812C134.873 58.7812 134.336 58.9943 133.952 59.4205C133.569 59.8419 133.377 60.384 133.377 61.0469V68H131.26V60.7486C131.26 60.1567 131.076 59.6809 130.706 59.321C130.337 58.9612 129.856 58.7812 129.265 58.7812C128.862 58.7812 128.49 58.8878 128.149 59.1009C127.813 59.3092 127.541 59.6004 127.333 59.9744C127.129 60.3485 127.027 60.7817 127.027 61.2741V68H124.904ZM147.381 68.2202C146.306 68.2202 145.381 67.9905 144.604 67.5312C143.832 67.0672 143.236 66.4162 142.814 65.5781C142.398 64.7353 142.189 63.7481 142.189 62.6165C142.189 61.4991 142.398 60.5142 142.814 59.6619C143.236 58.8097 143.823 58.1444 144.576 57.6662C145.333 57.188 146.219 56.9489 147.232 56.9489C147.848 56.9489 148.444 57.0507 149.022 57.2543C149.599 57.4579 150.118 57.7775 150.577 58.2131C151.037 58.6487 151.399 59.2145 151.664 59.9105C151.929 60.6018 152.062 61.4422 152.062 62.4318V63.1847H143.39V61.5938H149.981C149.981 61.035 149.867 60.5402 149.64 60.1094C149.412 59.6738 149.093 59.3305 148.681 59.0795C148.274 58.8286 147.796 58.7031 147.246 58.7031C146.65 58.7031 146.129 58.8499 145.684 59.1435C145.243 59.4323 144.903 59.8111 144.661 60.2798C144.424 60.7438 144.306 61.2481 144.306 61.7926V63.0355C144.306 63.7647 144.434 64.3849 144.689 64.8963C144.95 65.4077 145.312 65.7983 145.776 66.0682C146.24 66.3333 146.782 66.4659 147.403 66.4659C147.805 66.4659 148.172 66.4091 148.503 66.2955C148.835 66.1771 149.121 66.0019 149.363 65.7699C149.604 65.5379 149.789 65.2514 149.917 64.9105L151.927 65.2727C151.766 65.8646 151.477 66.383 151.06 66.8281C150.648 67.2685 150.13 67.6117 149.505 67.858C148.885 68.0994 148.177 68.2202 147.381 68.2202ZM156.641 61.5227V68H154.518V57.0909H156.556V58.8665H156.691C156.942 58.2888 157.335 57.8248 157.87 57.4744C158.41 57.1241 159.089 56.9489 159.908 56.9489C160.652 56.9489 161.303 57.1051 161.862 57.4176C162.42 57.7254 162.853 58.1847 163.161 58.7955C163.469 59.4062 163.623 60.1615 163.623 61.0611V68H161.499V61.3168C161.499 60.526 161.293 59.9081 160.881 59.4631C160.47 59.0133 159.904 58.7884 159.184 58.7884C158.692 58.7884 158.254 58.8949 157.87 59.108C157.491 59.321 157.191 59.6335 156.968 60.0455C156.75 60.4527 156.641 60.9451 156.641 61.5227ZM171.663 57.0909V58.7955H165.704V57.0909H171.663ZM167.302 54.4773H169.426V64.7969C169.426 65.2088 169.488 65.5189 169.611 65.7273C169.734 65.9309 169.892 66.0705 170.087 66.1463C170.285 66.2173 170.501 66.2528 170.733 66.2528C170.903 66.2528 171.052 66.241 171.18 66.2173C171.308 66.1937 171.408 66.1747 171.479 66.1605L171.862 67.9148C171.739 67.9621 171.564 68.0095 171.337 68.0568C171.109 68.1089 170.825 68.1373 170.484 68.142C169.926 68.1515 169.405 68.0521 168.922 67.8438C168.439 67.6354 168.048 67.3134 167.75 66.8778C167.452 66.4422 167.302 65.8954 167.302 65.2372V54.4773ZM184.1 68.2202C183.078 68.2202 182.185 67.9858 181.423 67.517C180.661 67.0483 180.069 66.3925 179.647 65.5497C179.226 64.7069 179.015 63.7221 179.015 62.5952C179.015 61.4635 179.226 60.474 179.647 59.6264C180.069 58.7789 180.661 58.1207 181.423 57.652C182.185 57.1832 183.078 56.9489 184.1 56.9489C185.123 56.9489 186.016 57.1832 186.778 57.652C187.54 58.1207 188.132 58.7789 188.554 59.6264C188.975 60.474 189.186 61.4635 189.186 62.5952C189.186 63.7221 188.975 64.7069 188.554 65.5497C188.132 66.3925 187.54 67.0483 186.778 67.517C186.016 67.9858 185.123 68.2202 184.1 68.2202ZM184.108 66.4375C184.77 66.4375 185.32 66.2623 185.755 65.9119C186.191 65.5616 186.513 65.0952 186.721 64.5128C186.934 63.9304 187.041 63.2888 187.041 62.5881C187.041 61.892 186.934 61.2528 186.721 60.6705C186.513 60.0833 186.191 59.6122 185.755 59.2571C185.32 58.902 184.77 58.7244 184.108 58.7244C183.44 58.7244 182.886 58.902 182.446 59.2571C182.01 59.6122 181.686 60.0833 181.473 60.6705C181.264 61.2528 181.16 61.892 181.16 62.5881C181.16 63.2888 181.264 63.9304 181.473 64.5128C181.686 65.0952 182.01 65.5616 182.446 65.9119C182.886 66.2623 183.44 66.4375 184.108 66.4375ZM196.848 57.0909V58.7955H190.683V57.0909H196.848ZM192.373 68V55.8267C192.373 55.1449 192.523 54.5791 192.821 54.1293C193.119 53.6747 193.515 53.3362 194.007 53.1136C194.499 52.8864 195.034 52.7727 195.612 52.7727C196.038 52.7727 196.403 52.8082 196.706 52.8793C197.009 52.9455 197.234 53.0071 197.381 53.0639L196.883 54.7827C196.784 54.7543 196.656 54.7211 196.5 54.6832C196.344 54.6406 196.154 54.6193 195.932 54.6193C195.416 54.6193 195.046 54.7472 194.824 55.0028C194.606 55.2585 194.497 55.6278 194.497 56.1108V68H192.373ZM214.056 53.4545H216.258V63.0213C216.258 64.0393 216.019 64.9413 215.54 65.7273C215.062 66.5085 214.39 67.1241 213.523 67.5739C212.657 68.0189 211.641 68.2415 210.476 68.2415C209.316 68.2415 208.303 68.0189 207.437 67.5739C206.57 67.1241 205.898 66.5085 205.42 65.7273C204.941 64.9413 204.702 64.0393 204.702 63.0213V53.4545H206.897V62.8438C206.897 63.5019 207.041 64.0866 207.33 64.598C207.624 65.1094 208.038 65.5118 208.573 65.8054C209.108 66.0942 209.743 66.2386 210.476 66.2386C211.215 66.2386 211.852 66.0942 212.387 65.8054C212.927 65.5118 213.339 65.1094 213.623 64.598C213.912 64.0866 214.056 63.5019 214.056 62.8438V53.4545ZM224.47 57.0909V58.7955H218.511V57.0909H224.47ZM220.109 54.4773H222.233V64.7969C222.233 65.2088 222.295 65.5189 222.418 65.7273C222.541 65.9309 222.699 66.0705 222.894 66.1463C223.092 66.2173 223.308 66.2528 223.54 66.2528C223.71 66.2528 223.859 66.241 223.987 66.2173C224.115 66.1937 224.215 66.1747 224.286 66.1605L224.669 67.9148C224.546 67.9621 224.371 68.0095 224.144 68.0568C223.916 68.1089 223.632 68.1373 223.291 68.142C222.733 68.1515 222.212 68.0521 221.729 67.8438C221.246 67.6354 220.855 67.3134 220.557 66.8778C220.259 66.4422 220.109 65.8954 220.109 65.2372V54.4773ZM232.012 57.0909V58.7955H226.053V57.0909H232.012ZM227.651 54.4773H229.774V64.7969C229.774 65.2088 229.836 65.5189 229.959 65.7273C230.082 65.9309 230.241 66.0705 230.435 66.1463C230.634 66.2173 230.849 66.2528 231.081 66.2528C231.252 66.2528 231.401 66.241 231.529 66.2173C231.657 66.1937 231.756 66.1747 231.827 66.1605L232.211 67.9148C232.087 67.9621 231.912 68.0095 231.685 68.0568C231.458 68.1089 231.174 68.1373 230.833 68.142C230.274 68.1515 229.753 68.0521 229.27 67.8438C228.787 67.6354 228.397 67.3134 228.098 66.8778C227.8 66.4422 227.651 65.8954 227.651 65.2372V54.4773ZM237.635 68.2415C236.944 68.2415 236.319 68.1136 235.76 67.858C235.202 67.5975 234.759 67.2211 234.432 66.7287C234.11 66.2363 233.949 65.6326 233.949 64.9176C233.949 64.3021 234.068 63.7955 234.305 63.3977C234.541 63 234.861 62.6851 235.263 62.4531C235.666 62.2211 236.116 62.0459 236.613 61.9276C237.11 61.8092 237.617 61.7192 238.133 61.6577C238.786 61.5819 239.316 61.5204 239.724 61.473C240.131 61.4209 240.427 61.3381 240.611 61.2244C240.796 61.1108 240.888 60.9261 240.888 60.6705V60.6207C240.888 60.0005 240.713 59.5199 240.363 59.179C240.017 58.8381 239.501 58.6676 238.814 58.6676C238.099 58.6676 237.536 58.8262 237.124 59.1435C236.717 59.456 236.435 59.804 236.279 60.1875L234.283 59.733C234.52 59.0701 234.866 58.535 235.32 58.1278C235.779 57.7159 236.307 57.4176 236.904 57.233C237.501 57.0436 238.128 56.9489 238.786 56.9489C239.222 56.9489 239.683 57.0009 240.171 57.1051C240.663 57.2045 241.123 57.3892 241.549 57.6591C241.98 57.929 242.332 58.3149 242.607 58.8168C242.882 59.3139 243.019 59.9602 243.019 60.7557V68H240.945V66.5085H240.86C240.723 66.7831 240.517 67.053 240.242 67.3182C239.967 67.5833 239.615 67.8035 239.184 67.9787C238.753 68.1539 238.237 68.2415 237.635 68.2415ZM238.097 66.5369C238.684 66.5369 239.186 66.4209 239.603 66.1889C240.024 65.9569 240.344 65.6539 240.562 65.2798C240.784 64.901 240.895 64.4962 240.895 64.0653V62.6591C240.82 62.7348 240.673 62.8059 240.455 62.8722C240.242 62.9337 239.998 62.9882 239.724 63.0355C239.449 63.0781 239.181 63.1184 238.921 63.1562C238.661 63.1894 238.443 63.2178 238.268 63.2415C237.856 63.2936 237.479 63.3812 237.138 63.5043C236.802 63.6274 236.532 63.8049 236.329 64.0369C236.13 64.2642 236.03 64.5672 236.03 64.946C236.03 65.4716 236.224 65.8693 236.613 66.1392C237.001 66.4044 237.496 66.5369 238.097 66.5369ZM245.947 68V57.0909H248V58.8239H248.114C248.313 58.2367 248.663 57.7751 249.165 57.4389C249.671 57.098 250.244 56.9276 250.884 56.9276C251.016 56.9276 251.172 56.9323 251.352 56.9418C251.537 56.9512 251.681 56.9631 251.786 56.9773V59.0085C251.7 58.9848 251.549 58.9588 251.331 58.9304C251.113 58.8973 250.895 58.8807 250.678 58.8807C250.176 58.8807 249.728 58.9872 249.335 59.2003C248.947 59.4086 248.639 59.6998 248.412 60.0739C248.185 60.4432 248.071 60.8646 248.071 61.3381V68H245.947ZM256.8 68.2415C256.109 68.2415 255.484 68.1136 254.925 67.858C254.367 67.5975 253.924 67.2211 253.597 66.7287C253.275 66.2363 253.114 65.6326 253.114 64.9176C253.114 64.3021 253.233 63.7955 253.469 63.3977C253.706 63 254.026 62.6851 254.428 62.4531C254.831 62.2211 255.28 62.0459 255.778 61.9276C256.275 61.8092 256.781 61.7192 257.297 61.6577C257.951 61.5819 258.481 61.5204 258.888 61.473C259.296 61.4209 259.592 61.3381 259.776 61.2244C259.961 61.1108 260.053 60.9261 260.053 60.6705V60.6207C260.053 60.0005 259.878 59.5199 259.528 59.179C259.182 58.8381 258.666 58.6676 257.979 58.6676C257.264 58.6676 256.701 58.8262 256.289 59.1435C255.882 59.456 255.6 59.804 255.444 60.1875L253.448 59.733C253.685 59.0701 254.03 58.535 254.485 58.1278C254.944 57.7159 255.472 57.4176 256.069 57.233C256.665 57.0436 257.293 56.9489 257.951 56.9489C258.386 56.9489 258.848 57.0009 259.336 57.1051C259.828 57.2045 260.288 57.3892 260.714 57.6591C261.145 57.929 261.497 58.3149 261.772 58.8168C262.047 59.3139 262.184 59.9602 262.184 60.7557V68H260.11V66.5085H260.025C259.887 66.7831 259.681 67.053 259.407 67.3182C259.132 67.5833 258.779 67.8035 258.349 67.9787C257.918 68.1539 257.402 68.2415 256.8 68.2415ZM257.262 66.5369C257.849 66.5369 258.351 66.4209 258.768 66.1889C259.189 65.9569 259.509 65.6539 259.726 65.2798C259.949 64.901 260.06 64.4962 260.06 64.0653V62.6591C259.985 62.7348 259.838 62.8059 259.62 62.8722C259.407 62.9337 259.163 62.9882 258.888 63.0355C258.614 63.0781 258.346 63.1184 258.086 63.1562C257.825 63.1894 257.608 63.2178 257.432 63.2415C257.02 63.2936 256.644 63.3812 256.303 63.5043C255.967 63.6274 255.697 63.8049 255.493 64.0369C255.295 64.2642 255.195 64.5672 255.195 64.946C255.195 65.4716 255.389 65.8693 255.778 66.1392C256.166 66.4044 256.661 66.5369 257.262 66.5369ZM267.065 64.2997L267.051 61.7074H267.421L271.767 57.0909H274.31L269.352 62.3466H269.019L267.065 64.2997ZM265.112 68V53.4545H267.236V68H265.112ZM272.002 68L268.095 62.8153L269.558 61.331L274.608 68H272.002ZM278.469 61.5227V68H276.345V53.4545H278.44V58.8665H278.575C278.831 58.2794 279.222 57.813 279.747 57.4673C280.273 57.1217 280.959 56.9489 281.807 56.9489C282.555 56.9489 283.208 57.1027 283.767 57.4105C284.33 57.7183 284.766 58.1776 285.074 58.7884C285.386 59.3944 285.543 60.152 285.543 61.0611V68H283.419V61.3168C283.419 60.5166 283.213 59.8963 282.801 59.456C282.389 59.0109 281.816 58.7884 281.082 58.7884C280.58 58.7884 280.131 58.8949 279.733 59.108C279.34 59.321 279.03 59.6335 278.803 60.0455C278.58 60.4527 278.469 60.9451 278.469 61.5227ZM291.651 68.2415C290.96 68.2415 290.335 68.1136 289.776 67.858C289.217 67.5975 288.775 67.2211 288.448 66.7287C288.126 66.2363 287.965 65.6326 287.965 64.9176C287.965 64.3021 288.083 63.7955 288.32 63.3977C288.557 63 288.876 62.6851 289.279 62.4531C289.681 62.2211 290.131 62.0459 290.628 61.9276C291.126 61.8092 291.632 61.7192 292.148 61.6577C292.802 61.5819 293.332 61.5204 293.739 61.473C294.146 61.4209 294.442 61.3381 294.627 61.2244C294.812 61.1108 294.904 60.9261 294.904 60.6705V60.6207C294.904 60.0005 294.729 59.5199 294.378 59.179C294.033 58.8381 293.517 58.6676 292.83 58.6676C292.115 58.6676 291.552 58.8262 291.14 59.1435C290.733 59.456 290.451 59.804 290.295 60.1875L288.299 59.733C288.536 59.0701 288.881 58.535 289.336 58.1278C289.795 57.7159 290.323 57.4176 290.92 57.233C291.516 57.0436 292.144 56.9489 292.802 56.9489C293.237 56.9489 293.699 57.0009 294.187 57.1051C294.679 57.2045 295.138 57.3892 295.564 57.6591C295.995 57.929 296.348 58.3149 296.623 58.8168C296.897 59.3139 297.035 59.9602 297.035 60.7557V68H294.961V66.5085H294.876C294.738 66.7831 294.532 67.053 294.258 67.3182C293.983 67.5833 293.63 67.8035 293.199 67.9787C292.769 68.1539 292.252 68.2415 291.651 68.2415ZM292.113 66.5369C292.7 66.5369 293.202 66.4209 293.618 66.1889C294.04 65.9569 294.359 65.6539 294.577 65.2798C294.8 64.901 294.911 64.4962 294.911 64.0653V62.6591C294.835 62.7348 294.689 62.8059 294.471 62.8722C294.258 62.9337 294.014 62.9882 293.739 63.0355C293.465 63.0781 293.197 63.1184 292.937 63.1562C292.676 63.1894 292.458 63.2178 292.283 63.2415C291.871 63.2936 291.495 63.3812 291.154 63.5043C290.818 63.6274 290.548 63.8049 290.344 64.0369C290.145 64.2642 290.046 64.5672 290.046 64.946C290.046 65.4716 290.24 65.8693 290.628 66.1392C291.017 66.4044 291.511 66.5369 292.113 66.5369ZM302.087 61.5227V68H299.963V57.0909H302.001V58.8665H302.136C302.387 58.2888 302.78 57.8248 303.315 57.4744C303.855 57.1241 304.535 56.9489 305.354 56.9489C306.097 56.9489 306.748 57.1051 307.307 57.4176C307.866 57.7254 308.299 58.1847 308.607 58.7955C308.914 59.4062 309.068 60.1615 309.068 61.0611V68H306.945V61.3168C306.945 60.526 306.739 59.9081 306.327 59.4631C305.915 59.0133 305.349 58.7884 304.629 58.7884C304.137 58.7884 303.699 58.8949 303.315 59.108C302.937 59.321 302.636 59.6335 302.413 60.0455C302.196 60.4527 302.087 60.9451 302.087 61.5227ZM316.1 68.2131C315.219 68.2131 314.433 67.9882 313.742 67.5384C313.056 67.0838 312.516 66.4375 312.123 65.5994C311.735 64.7566 311.54 63.7457 311.54 62.5668C311.54 61.3878 311.737 60.3793 312.13 59.5412C312.528 58.7031 313.072 58.0616 313.763 57.6165C314.455 57.1714 315.238 56.9489 316.114 56.9489C316.791 56.9489 317.336 57.0625 317.748 57.2898C318.164 57.5123 318.486 57.7727 318.714 58.071C318.946 58.3693 319.126 58.6321 319.253 58.8594H319.381V53.4545H321.505V68H319.431V66.3026H319.253C319.126 66.5346 318.941 66.7997 318.699 67.098C318.463 67.3963 318.136 67.6567 317.719 67.8793C317.303 68.1018 316.763 68.2131 316.1 68.2131ZM316.569 66.402C317.18 66.402 317.696 66.241 318.117 65.919C318.543 65.5923 318.865 65.1402 319.083 64.5625C319.306 63.9848 319.417 63.3125 319.417 62.5455C319.417 61.7879 319.308 61.125 319.09 60.5568C318.872 59.9886 318.553 59.5459 318.131 59.2287C317.71 58.9115 317.189 58.7528 316.569 58.7528C315.93 58.7528 315.397 58.9186 314.971 59.25C314.545 59.5814 314.223 60.0336 314.005 60.6065C313.792 61.1795 313.685 61.8258 313.685 62.5455C313.685 63.2746 313.794 63.9304 314.012 64.5128C314.23 65.0952 314.552 65.5568 314.978 65.8977C315.409 66.2339 315.939 66.402 316.569 66.402Z" fill="#080808"/>
</svg>
