<svg width="179" height="179" viewBox="0 0 179 179" fill="none" xmlns="http://www.w3.org/2000/svg">
<g clip-path="url(#clip0_633_7634)">
<path d="M92.9239 85.9232C92.8947 85.8926 92.8863 85.8519 92.8564 85.822L63.0725 56.0377V37.3231C63.0725 35.9366 62.522 34.6117 61.5437 33.6329L30.2303 1.97197C29.5002 1.24232 28.5702 0.745451 27.5578 0.544127C26.5454 0.342804 25.4961 0.446062 24.5424 0.840855C23.5885 1.23531 22.7732 1.90406 22.1997 2.76235C21.6263 3.62064 21.3206 4.62985 21.3213 5.66208V21.3188H5.31663C4.28446 21.3179 3.27528 21.6236 2.41702 22.197C1.55877 22.7704 0.890089 23.5857 0.495756 24.5395C0.0999369 25.4931 -0.0038344 26.5427 0.197598 27.5553C0.399031 28.568 0.896595 29.498 1.62721 30.2274L33.2886 61.8884C33.7729 62.3733 34.3481 62.7579 34.9812 63.0203C35.6143 63.2826 36.293 63.4177 36.9783 63.4176H55.6929L85.4769 93.2015C85.5068 93.2314 85.5475 93.2398 85.5781 93.269C87.61 95.2083 90.6965 95.2341 92.7555 93.269C94.9238 91.1995 94.8751 87.9673 92.9239 85.9232Z" fill="white"/>
<path d="M89.166 0.443604C75.8122 0.443604 63.1863 3.84111 51.8167 9.14803L67.8262 25.1575C74.5454 22.9231 81.7068 21.6671 89.1663 21.6671C126.575 21.6668 157.011 52.1034 157.011 89.5121C157.011 126.921 126.575 157.357 89.166 157.357C51.7569 157.357 21.3206 126.921 21.3206 89.5121C21.3206 82.0526 22.577 74.8912 24.811 68.1721L8.8015 52.1626C3.49526 63.5325 0.0974121 76.1584 0.0974121 89.5121C0.0974121 138.434 40.2443 178.581 89.166 178.581C138.088 178.581 178.235 138.434 178.235 89.5121C178.235 40.5905 138.088 0.443604 89.166 0.443604Z" fill="white"/>
<path d="M89.1668 42.5425C83.6504 42.5425 78.4315 43.6732 73.5101 45.4278V51.7163L85.5751 63.7813C86.7602 63.6157 87.9369 63.4181 89.1668 63.4181C103.555 63.4181 115.261 75.1248 115.261 89.5126C115.261 103.9 103.555 115.607 89.1668 115.607C74.779 115.607 63.0723 103.9 63.0723 89.5126C63.0723 88.2823 63.2699 87.1056 63.4355 85.9209L51.3708 73.8555H45.0824C43.3278 78.777 42.197 83.9959 42.197 89.5122C42.197 115.413 63.2664 136.482 89.1668 136.482C115.067 136.482 136.137 115.413 136.137 89.5122C136.137 63.6115 115.067 42.5425 89.1668 42.5425Z" fill="white"/>
</g>
<defs>
<clipPath id="clip0_633_7634">
<rect width="178.138" height="178.138" fill="white" transform="translate(0.0974121 0.442871)"/>
</clipPath>
</defs>
</svg>
