<svg width="180" height="180" viewBox="0 0 180 180" fill="none" xmlns="http://www.w3.org/2000/svg">
<path d="M159.947 134.117H125.043C122.044 134.126 119.073 133.541 116.302 132.394C113.531 131.247 111.015 129.562 108.9 127.437C105.896 124.431 66.7253 85.2818 65.2278 83.737L30.0733 48.5825C29.535 48.0858 28.8295 47.8101 28.0971 47.8101C27.3647 47.8101 26.6591 48.0858 26.1208 48.5825L14.8202 59.911C13.1004 61.6368 12.1348 63.9739 12.1348 66.4103C12.1348 68.8466 13.1004 71.1837 14.8202 72.9095L95.7062 153.768C96.6901 154.768 97.751 155.689 98.8793 156.523C103.761 160.157 109.689 162.11 115.775 162.09H152.404C156.537 162.087 160.5 160.444 163.423 157.521C166.345 154.599 167.988 150.636 167.991 146.503V142.272C167.995 140.128 167.152 138.068 165.645 136.541C164.139 135.014 162.092 134.143 159.947 134.117Z" fill="white"/>
<path d="M69.1532 79.8126L70.9346 81.594C71.547 72.0079 73.1057 49.1672 73.6902 39.8985L74.2747 31.1307C74.4152 28.629 73.7961 26.1432 72.4985 23.9997C71.201 21.8561 69.2856 20.1549 67.0039 19.1194C64.7222 18.0839 62.1808 17.7625 59.7131 18.1973C57.2454 18.6321 54.9668 19.8028 53.1764 21.5558L31.6885 43.0437C32.5404 43.4154 33.3147 43.9442 33.9709 44.6024L69.1532 79.8126ZM125.044 128.55H154.799C143.836 116.145 135.022 101.996 128.718 86.6877C126.311 89.1259 121.086 94.2975 118.642 96.7636C118.118 97.2841 117.409 97.575 116.67 97.5724C115.932 97.5697 115.224 97.2738 114.704 96.7497C114.183 96.2256 113.892 95.5162 113.895 94.7776C113.898 94.0389 114.194 93.3316 114.718 92.8112L126.575 80.9538C124.181 74.3571 122.149 68.5398 120.424 63.5297L104.252 79.7013C103.998 79.9655 103.693 80.1757 103.356 80.3192C103.019 80.4628 102.656 80.5368 102.29 80.5368C101.923 80.5368 101.561 80.4628 101.223 80.3192C100.886 80.1757 100.581 79.9655 100.327 79.7013C100.069 79.4438 99.8647 79.1379 99.7251 78.8012C99.5854 78.4645 99.5135 78.1035 99.5135 77.739C99.5135 77.3744 99.5854 77.0135 99.7251 76.6768C99.8647 76.34 100.069 76.0342 100.327 75.7767L118.475 57.6288C115.511 48.5076 113.849 38.9994 102.805 38.8408C100.263 38.8442 97.7764 39.5849 95.6471 40.9732C93.5177 42.3615 91.8368 44.3377 90.8082 46.6622C89.1771 50.6425 84.8239 51.4719 80.8992 51.1156C79.5242 51.2826 78.2327 49.9605 78.4777 52.0342L78.4498 52.6187C78.1353 56.7882 76.4402 83.278 76.1674 86.8547L112.825 123.512C114.427 125.118 116.332 126.391 118.43 127.255C120.527 128.12 122.775 128.56 125.044 128.55ZM91.7824 157.693L90.6134 156.524H14.9045C14.1663 156.524 13.4583 156.817 12.9363 157.339C12.4143 157.861 12.1211 158.569 12.1211 159.307C12.1211 160.045 12.4143 160.753 12.9363 161.275C13.4583 161.797 14.1663 162.09 14.9045 162.09H97.1544C95.1937 160.845 93.39 159.369 91.7824 157.693ZM56.6557 139.689C57.3939 139.689 58.1019 139.396 58.6239 138.874C59.1459 138.352 59.4391 137.644 59.4391 136.906C59.4391 136.168 59.1459 135.46 58.6239 134.938C58.1019 134.416 57.3939 134.123 56.6557 134.123H14.9045C14.1663 134.123 13.4583 134.416 12.9363 134.938C12.4143 135.46 12.1211 136.168 12.1211 136.906C12.1211 137.644 12.4143 138.352 12.9363 138.874C13.4583 139.396 14.1663 139.689 14.9045 139.689H56.6557Z" fill="white"/>
</svg>
