<svg width="179" height="179" viewBox="0 0 179 179" fill="none" xmlns="http://www.w3.org/2000/svg">
<g clip-path="url(#clip0_633_7649)">
<path d="M145.29 78.704C142.611 78.704 140.005 79.0255 137.509 79.6281L124.317 47.9682L135.761 44.1538C138.495 43.2423 139.973 40.2866 139.061 37.5523C138.15 34.8183 135.196 33.3392 132.46 34.2518L115.333 39.9756C112.672 41.0844 111.414 44.1396 112.523 46.8002L115.802 54.6699L70.059 66.5628L65.3606 55.6017H72.6197C75.502 55.6017 77.8386 53.265 77.8386 50.3828C77.8386 47.5005 75.502 45.1639 72.6197 45.1639H50.2595C47.3773 45.1639 45.0406 47.5005 45.0406 50.3828C45.0406 53.265 47.3773 55.6017 50.2595 55.6017H54.0043L60.953 71.813L50.8381 83.614C45.7876 80.5021 39.845 78.704 33.4898 78.704C15.2003 78.704 0.320557 93.5834 0.320557 111.873C0.320557 130.162 15.2003 145.042 33.4895 145.042C50.0034 145.042 63.7358 132.91 66.2464 117.092H83.7993C84.6214 117.092 85.4319 116.898 86.1647 116.525C86.8975 116.152 87.5319 115.612 88.0162 114.948L121.68 68.7794L127.877 83.6533C118.428 89.5047 112.12 99.9651 112.12 111.873C112.12 130.162 127 145.041 145.289 145.041C163.579 145.041 178.459 130.162 178.459 111.873C178.459 93.5834 163.579 78.704 145.29 78.704ZM33.4895 134.604C20.9557 134.604 10.7584 124.407 10.7584 111.873C10.7584 99.3389 20.9557 89.1418 33.4895 89.1418C37.1199 89.1392 40.6975 90.012 43.9189 91.6862L29.5269 108.477C28.8772 109.235 28.4584 110.163 28.3203 111.151C28.1821 112.14 28.3304 113.147 28.7475 114.054C29.1646 114.961 29.833 115.729 30.6735 116.268C31.514 116.806 32.4913 117.092 33.4895 117.092H55.6089C53.2437 127.118 44.2275 134.604 33.4895 134.604ZM44.8367 106.654L65.5356 82.5051L75.885 106.654H44.8367ZM84.9847 101.39L74.2178 76.2661L110.108 66.9343L84.9847 101.39ZM145.29 134.604C132.756 134.604 122.559 124.407 122.559 111.873C122.559 104.312 126.273 97.6062 131.969 93.4714L140.472 113.88C141.581 116.541 144.637 117.799 147.297 116.691C149.958 115.582 151.216 112.527 150.107 109.866L141.599 89.4462C142.819 89.2447 144.053 89.1429 145.29 89.1418C157.824 89.1418 168.021 99.3392 168.021 111.873C168.021 124.407 157.824 134.604 145.29 134.604Z" fill="white"/>
</g>
<defs>
<clipPath id="clip0_633_7649">
<rect width="178.138" height="178.138" fill="white" transform="translate(0.320557 0.442871)"/>
</clipPath>
</defs>
</svg>
