<svg width="179" height="179" viewBox="0 0 179 179" fill="none" xmlns="http://www.w3.org/2000/svg">
<path d="M89.4976 4.89624C42.8253 4.89624 4.88184 42.8397 4.88184 89.512C4.88184 136.184 42.8253 174.128 89.4976 174.128C136.17 174.128 174.113 136.184 174.113 89.512C174.113 42.8397 136.17 4.89624 89.4976 4.89624ZM149.53 127.812C149.174 127.812 148.818 127.634 148.283 127.634H123.344L109.449 108.573L116.753 85.9493L139.376 78.6456L159.684 93.4311L160.753 93.9655C159.862 106.257 155.943 117.836 149.53 127.812ZM144.542 44.0867L144.008 45.1555L136.17 69.0261L113.19 76.5079L94.4855 62.9694V38.7426L114.793 23.9571C115.15 23.7789 115.328 23.4226 115.684 23.0664C126.907 27.698 136.882 35.0016 144.542 44.0867ZM63.3113 23.2445L64.202 24.1352L84.5097 38.9207V62.9694L65.6271 76.5079L42.6472 69.0261L34.9872 45.1555L34.4528 44.0867C42.1128 34.8235 52.0885 27.698 63.3113 23.2445ZM30.7119 127.634C30.3556 127.634 29.8212 127.812 29.4649 127.812C23.052 117.836 19.1329 106.257 18.4204 93.9655L19.4892 93.4311L39.797 78.6456L62.2424 85.9493L69.5461 108.395L55.6513 127.634H30.7119ZM71.6838 158.452C71.6838 158.095 71.6838 157.739 71.5056 157.205L63.6675 133.334L77.5623 114.451H101.433L115.328 133.334L107.49 157.205C107.311 157.739 107.311 158.095 107.311 158.452C101.611 159.877 95.7325 160.767 89.4976 160.767C83.2628 160.767 77.3842 160.055 71.6838 158.452Z" fill="white"/>
</svg>
