<svg width="178" height="178" viewBox="0 0 178 178" fill="none" xmlns="http://www.w3.org/2000/svg">
<path d="M83.2774 40.8968C83.2774 33.6438 77.314 27.7617 69.9481 27.7617C62.5918 27.7617 56.6281 33.6405 56.6281 40.8968C56.6281 48.1901 62.5915 54.0912 69.9481 54.0912C77.3012 54.0909 83.2774 48.1901 83.2774 40.8968Z" fill="white"/>
<path d="M137.561 53.7586C137.04 50.9416 134.728 49.323 134.59 49.2003L61.5282 1.04687C58.6361 -0.857492 54.6958 -0.091809 52.7255 2.75966L49.027 8.12403C47.6498 10.2259 48.2521 12.9583 50.3257 14.3197C52.4119 15.7002 54.6987 14.6615 56.0415 12.5567L58.8618 5.60817L124.344 48.9024L72.2599 58.3071C68.5581 58.9032 65.8979 62.605 66.723 66.206L78.054 110.052L41.4102 165.032C39.1984 168.784 40.5349 173.621 44.3308 175.761C48.1675 177.941 53.0017 176.602 55.2102 172.853C55.2102 172.853 93.4507 115.354 93.595 114.962L95.587 122.996L89.8119 168.866C89.0997 173.135 92.0299 177.166 96.3747 177.888C100.707 178.615 104.798 175.714 105.535 171.444L111.458 124.366C111.646 123.231 111.41 120.734 111.138 119.661L98.0842 67.6895L132.093 61.566C135.738 60.9234 138.188 57.4227 137.561 53.7586Z" fill="white"/>
</svg>
