<svg width="179" height="180" viewBox="0 0 179 180" fill="none" xmlns="http://www.w3.org/2000/svg">
<path d="M159.066 20.3952C134.293 -4.09888 94.4905 -5.76892 68.0481 17.0551L39.379 42.3841C39.379 42.3841 39.1006 42.3841 39.1006 42.6625C37.7089 43.7758 36.3172 44.6109 35.2038 46.0026C27.967 52.9611 23.7918 62.9814 24.0702 73.8367V79.6819C24.0702 81.3519 24.6269 82.7436 25.7402 83.857L95.6039 153.721C96.7173 154.834 98.109 155.391 99.779 155.391H105.624C115.644 155.669 124.83 152.051 131.51 145.927C133.458 144.257 134.85 142.309 136.52 140.36C136.52 140.36 136.52 140.082 136.798 140.082L162.406 111.413C172.704 99.1658 178.55 83.857 178.55 67.7132C178.55 49.8993 171.591 33.1989 159.066 20.3952ZM85.3053 95.5473C68.6048 95.5473 55.2444 82.187 55.2444 65.4865C55.2444 48.786 68.6048 35.4256 85.3053 35.4256C102.006 35.4256 115.366 49.0643 115.366 65.4865C115.366 82.187 101.727 95.5473 85.3053 95.5473ZM85.3053 41.5491C71.9449 41.5491 61.0896 52.4044 61.0896 65.7648C61.0896 79.1252 71.9449 89.9805 85.3053 89.9805C98.6657 89.9805 109.521 79.1252 109.521 65.7648C109.243 52.4044 98.6657 41.5491 85.3053 41.5491ZM36.8739 102.784C34.9255 100.836 31.3071 102.506 31.8637 105.289C31.8637 105.568 31.8637 106.124 32.1421 106.403C34.0905 122.546 26.0186 138.969 11.8232 148.432L5.14296 152.886C2.63788 154.556 0.967836 157.339 0.689495 160.401C0.411153 163.463 1.52452 166.524 3.75125 168.751L11.2665 175.988C12.6582 177.936 15.1632 179.05 17.9467 179.05C21.2868 179.05 24.6269 177.38 26.5752 174.596L31.0287 167.916C40.214 153.721 56.9145 145.649 73.0583 147.597C73.3366 147.597 73.8933 147.597 74.1716 147.876C76.955 148.432 78.6251 144.814 76.6767 142.865L36.8739 102.784Z" fill="white"/>
</svg>
