<svg width="180" height="179" viewBox="0 0 180 179" fill="none" xmlns="http://www.w3.org/2000/svg">
<g clip-path="url(#clip0_633_7626)">
<path d="M168.161 84.2932C165.58 45.2777 134.29 13.9877 95.2745 11.4067V0.442871H84.8367V11.4067C45.8212 13.9877 14.5311 45.2777 11.9502 84.2932H0.986328V94.731H11.9502C14.5311 133.746 45.8212 165.037 84.8367 167.617V178.581H95.2745V167.617C134.29 165.037 165.58 133.746 168.161 94.731H179.125V84.2932H168.161ZM84.8367 21.8651V42.8336C63.0986 45.2478 45.7913 62.5551 43.377 84.2932H22.4085C24.9505 51.0345 51.578 24.407 84.8367 21.8651ZM84.8367 157.159C51.578 154.617 24.9505 127.99 22.4085 94.731H43.377C45.7913 116.469 63.0986 133.776 84.8367 136.191V157.159ZM84.8367 115.607V125.67C68.8613 123.375 56.1929 110.706 53.8976 94.731H63.9611V84.2932H53.8976C56.1929 68.3178 68.8613 55.6494 84.8367 53.3542V63.4176H95.2745V53.3542C111.25 55.6494 123.918 68.3178 126.214 84.2932H116.15V94.731H126.214C123.918 110.706 111.25 123.375 95.2745 125.67V115.607H84.8367ZM95.2745 157.159V136.191C117.013 133.776 134.32 116.469 136.734 94.731H157.703C155.161 127.99 128.533 154.617 95.2745 157.159ZM136.734 84.2932C134.32 62.5551 117.013 45.2478 95.2745 42.8336V21.8651C128.533 24.407 155.161 51.0345 157.703 84.2932H136.734Z" fill="white"/>
<path d="M90.0571 73.8555C81.424 73.8555 74.4004 80.8791 74.4004 89.5122C74.4004 98.1453 81.424 105.169 90.0571 105.169C98.6902 105.169 105.714 98.1453 105.714 89.5122C105.714 80.8791 98.6902 73.8555 90.0571 73.8555Z" fill="white"/>
</g>
<defs>
<clipPath id="clip0_633_7626">
<rect width="178.138" height="178.138" fill="white" transform="translate(0.986328 0.442871)"/>
</clipPath>
</defs>
</svg>
