<svg width="179" height="180" viewBox="0 0 179 180" fill="none" xmlns="http://www.w3.org/2000/svg">
<g clip-path="url(#clip0_633_7600)">
<path d="M61.7995 55.0748C68.648 61.844 81.8427 76.0424 89.1661 91.4578C96.4895 76.0424 109.684 61.844 116.533 55.0748C125.566 46.1457 136.498 37.17 146.379 31.3162C130.327 17.7688 110.287 10.3838 89.1661 10.3838C68.0451 10.3838 48.0051 17.7688 31.953 31.3166C41.8336 37.17 52.7661 46.1457 61.7995 55.0748ZM154.285 38.8407C146.12 43.2865 134.961 51.5347 123.87 62.4981C109.714 76.4905 99.9399 90.5323 96.1465 101.943C125.831 102.401 152.894 105.772 171.209 111.354C171.954 111.581 172.741 111.638 173.512 111.521C174.282 111.405 175.017 111.117 175.661 110.679C176.306 110.242 176.845 109.665 177.237 108.992C177.63 108.319 177.867 107.567 177.931 106.79C178.132 104.351 178.234 101.883 178.234 99.452C178.234 76.8127 169.75 55.4154 154.285 38.8407ZM54.4618 62.4981C43.3708 51.535 32.2115 43.2865 24.0468 38.8407C8.58198 55.4154 0.0978901 76.8127 0.0978901 99.452C0.0978901 101.883 0.199831 104.352 0.400931 106.79C0.464959 107.567 0.702089 108.319 1.09491 108.992C1.48774 109.665 2.02629 110.242 2.67103 110.68C3.31577 111.117 4.05033 111.405 4.8208 111.522C5.59127 111.638 6.37809 111.581 7.12349 111.354C25.4378 105.772 52.5006 102.402 82.1857 101.943C78.3923 90.5323 68.6178 76.4905 54.4618 62.4981ZM178.113 137.302C177.497 134.487 174.714 132.706 171.899 133.321L164.206 135.006C161.986 131.256 158.358 127.855 153.477 125.034C146.133 120.79 136.67 118.356 127.515 118.356C118.248 118.356 110.233 120.81 104.338 125.453C99.839 128.995 96.8656 133.607 95.6726 138.767H82.6599C81.4669 133.607 78.4936 128.995 73.9949 125.453C68.0997 120.81 60.085 118.356 50.8174 118.356C41.6621 118.356 32.1993 120.79 24.8554 125.034C19.9747 127.855 16.3462 131.256 14.1268 135.006L6.43356 133.321C3.61852 132.704 0.835486 134.487 0.219315 137.302C-0.397204 140.118 1.3852 142.901 4.20059 143.517L11.6225 145.143C12.0957 151.971 16.7505 158.253 24.8554 162.937C32.1993 167.182 41.6621 169.616 50.8174 169.616C60.085 169.616 68.0997 167.162 73.9949 162.519C78.4936 158.976 81.4669 154.365 82.6599 149.205H95.6726C96.8656 154.365 99.839 158.976 104.338 162.519C110.233 167.162 118.248 169.616 127.515 169.616C136.67 169.616 146.133 167.182 153.477 162.937C161.582 158.253 166.237 151.971 166.71 145.143L174.132 143.517C176.948 142.901 178.73 140.118 178.113 137.302Z" fill="white"/>
</g>
<defs>
<clipPath id="clip0_633_7600">
<rect width="178.138" height="178.138" fill="white" transform="translate(0.0974121 0.930664)"/>
</clipPath>
</defs>
</svg>
