<svg width="179" height="180" viewBox="0 0 179 180" fill="none" xmlns="http://www.w3.org/2000/svg">
<path d="M9.02826 80.0833H15.4005V99.935H9.02826C5.74105 99.935 3.07837 97.2538 3.07837 93.9666V86.0335C3.07837 82.746 5.74105 80.0833 9.02826 80.0833ZM60.4845 80.0833H118.277V99.935H60.4845V80.0833ZM175.701 86.0332V93.9663C175.701 97.2535 173.038 99.9346 169.751 99.9346H163.36V80.0829H169.751C173.038 80.0833 175.701 82.746 175.701 86.0332ZM56.8118 47.8541V132.145C56.8123 132.507 56.7414 132.866 56.6032 133.2C56.4649 133.534 56.2621 133.838 56.0062 134.094C55.7503 134.35 55.4464 134.553 55.112 134.691C54.7776 134.829 54.4192 134.9 54.0573 134.9H44.1038C39.1824 134.9 35.1788 130.897 35.1788 125.975V116.701H27.9798C23.0765 116.701 19.0733 112.698 19.0733 107.776V72.2236C19.0733 67.3022 23.0765 63.2986 27.9798 63.2986H35.1788V54.0246C35.1788 49.1032 39.182 45.0996 44.1038 45.0996H54.0573C54.4192 45.0992 54.7775 45.1701 55.1119 45.3084C55.4464 45.4466 55.7502 45.6495 56.0061 45.9054C56.2619 46.1613 56.4648 46.4651 56.6031 46.7995C56.7414 47.1339 56.8123 47.4923 56.8118 47.8541ZM159.688 72.2236V107.777C159.688 112.698 155.702 116.702 150.781 116.702H143.582V125.976C143.582 130.897 139.579 134.901 134.657 134.901H124.704C123.198 134.901 121.949 133.67 121.949 132.146V47.8541C121.949 46.3299 123.198 45.0996 124.704 45.0996H134.657C139.579 45.0996 143.582 49.1029 143.582 54.0246V63.2986H150.781C155.702 63.2986 159.688 67.3019 159.688 72.2236Z" fill="white"/>
</svg>
